<?xml version="1.0" encoding="utf-8"?>
<!-- Generator: Adobe Illustrator 16.0.0, SVG Export Plug-In . SVG Version: 6.00 Build 0)  -->
<!DOCTYPE svg PUBLIC "-//W3C//DTD SVG 1.1//EN" "http://www.w3.org/Graphics/SVG/1.1/DTD/svg11.dtd">
<svg version="1.1" id="Layer_1" xmlns="http://www.w3.org/2000/svg" xmlns:xlink="http://www.w3.org/1999/xlink" x="0px" y="0px"
	 width="130px" height="130px" viewBox="0 0 130 130" enable-background="new 0 0 130 130" xml:space="preserve">
<g>
	<g>
		<g>
			<g>
				<path fill="#63B2BA" d="M89.232,47.774c-0.059,0-0.117-0.016-0.172-0.046L64.59,33.599c-0.166-0.097-0.221-0.309-0.125-0.473
					c0.094-0.166,0.309-0.223,0.473-0.127l24.469,14.128c0.168,0.095,0.223,0.308,0.127,0.474
					C89.471,47.712,89.354,47.774,89.232,47.774z"/>
			</g>
			<g>
				<path fill="#63B2BA" d="M65.551,36.967c-0.195,0-0.348-0.157-0.348-0.349v-2.833c0-0.19,0.152-0.347,0.348-0.347
					c0.191,0,0.346,0.156,0.346,0.347v2.833C65.896,36.81,65.742,36.967,65.551,36.967z"/>
			</g>
			<g>
				<path fill="#63B2BA" d="M67.957,38.383c-0.191,0-0.346-0.157-0.346-0.349V35.2c0-0.19,0.154-0.346,0.346-0.346
					c0.193,0,0.348,0.155,0.348,0.346v2.834C68.305,38.226,68.15,38.383,67.957,38.383z"/>
			</g>
			<g>
				<path fill="#63B2BA" d="M70.367,39.796c-0.191,0-0.348-0.155-0.348-0.344v-2.836c0-0.189,0.156-0.348,0.348-0.348
					s0.348,0.158,0.348,0.348v2.836C70.715,39.641,70.559,39.796,70.367,39.796z"/>
			</g>
			<g>
				<path fill="#63B2BA" d="M72.775,41.215c-0.191,0-0.348-0.158-0.348-0.35v-2.831c0-0.192,0.156-0.348,0.348-0.348
					c0.193,0,0.35,0.155,0.35,0.348v2.831C73.125,41.057,72.969,41.215,72.775,41.215z"/>
			</g>
			<g>
				<path fill="#63B2BA" d="M75.186,42.63c-0.191,0-0.348-0.157-0.348-0.349v-2.833c0-0.19,0.156-0.346,0.348-0.346
					s0.348,0.155,0.348,0.346v2.833C75.533,42.473,75.377,42.63,75.186,42.63z"/>
			</g>
			<g>
				<path fill="#63B2BA" d="M77.596,44.045c-0.191,0-0.35-0.155-0.35-0.348v-2.833c0-0.188,0.158-0.347,0.35-0.347
					s0.346,0.158,0.346,0.347v2.833C77.941,43.89,77.787,44.045,77.596,44.045z"/>
			</g>
			<g>
				<path fill="#63B2BA" d="M80.004,45.462c-0.193,0-0.348-0.155-0.348-0.348v-2.833c0-0.191,0.154-0.347,0.348-0.347
					c0.191,0,0.348,0.155,0.348,0.347v2.833C80.352,45.307,80.195,45.462,80.004,45.462z"/>
			</g>
			<g>
				<path fill="#63B2BA" d="M82.41,46.876c-0.191,0-0.346-0.154-0.346-0.345v-2.835c0-0.188,0.154-0.347,0.346-0.347
					c0.193,0,0.348,0.158,0.348,0.347v2.835C82.758,46.722,82.604,46.876,82.41,46.876z"/>
			</g>
			<g>
				<path fill="#63B2BA" d="M84.82,48.292c-0.191,0-0.348-0.154-0.348-0.346v-2.832c0-0.193,0.156-0.35,0.348-0.35
					s0.348,0.156,0.348,0.35v2.832C85.168,48.138,85.012,48.292,84.82,48.292z"/>
			</g>
			<g>
				<path fill="#63B2BA" d="M87.23,49.71c-0.191,0-0.35-0.157-0.35-0.346v-2.836c0-0.19,0.158-0.346,0.35-0.346
					s0.346,0.155,0.346,0.346v2.836C87.576,49.553,87.422,49.71,87.23,49.71z"/>
			</g>
		</g>
		<g>
			<g>
				<path fill="#63B2BA" d="M40.537,47.892c0.059,0,0.121-0.015,0.174-0.047L65.18,33.718c0.168-0.096,0.225-0.311,0.127-0.475
					c-0.094-0.166-0.309-0.222-0.475-0.13L40.363,47.244c-0.166,0.098-0.221,0.309-0.125,0.473
					C40.301,47.829,40.416,47.892,40.537,47.892z"/>
			</g>
			<g>
				<path fill="#63B2BA" d="M64.221,37.085c0.193,0,0.348-0.157,0.348-0.348v-2.834c0-0.191-0.154-0.349-0.348-0.349
					c-0.191,0-0.346,0.157-0.346,0.349v2.834C63.875,36.928,64.029,37.085,64.221,37.085z"/>
			</g>
			<g>
				<path fill="#63B2BA" d="M61.814,38.5c0.191,0,0.346-0.155,0.346-0.348v-2.833c0-0.191-0.154-0.347-0.346-0.347
					c-0.193,0-0.35,0.155-0.35,0.347v2.833C61.465,38.345,61.621,38.5,61.814,38.5z"/>
			</g>
			<g>
				<path fill="#63B2BA" d="M59.402,39.915c0.191,0,0.348-0.156,0.348-0.346v-2.834c0-0.191-0.156-0.348-0.348-0.348
					s-0.346,0.156-0.346,0.348v2.834C59.057,39.759,59.211,39.915,59.402,39.915z"/>
			</g>
			<g>
				<path fill="#63B2BA" d="M56.994,41.331c0.191,0,0.35-0.154,0.35-0.348V38.15c0-0.188-0.158-0.346-0.35-0.346
					s-0.35,0.157-0.35,0.346v2.833C56.645,41.177,56.803,41.331,56.994,41.331z"/>
			</g>
			<g>
				<path fill="#63B2BA" d="M54.586,42.747c0.193,0,0.346-0.154,0.346-0.346v-2.836c0-0.189-0.152-0.345-0.346-0.345
					c-0.191,0-0.348,0.155-0.348,0.345v2.836C54.238,42.593,54.395,42.747,54.586,42.747z"/>
			</g>
			<g>
				<path fill="#63B2BA" d="M52.178,44.165c0.191,0,0.346-0.157,0.346-0.348v-2.834c0-0.191-0.154-0.348-0.346-0.348
					c-0.193,0-0.348,0.156-0.348,0.348v2.834C51.83,44.008,51.984,44.165,52.178,44.165z"/>
			</g>
			<g>
				<path fill="#63B2BA" d="M49.768,45.579c0.191,0,0.35-0.153,0.35-0.346v-2.834c0-0.192-0.158-0.348-0.35-0.348
					s-0.346,0.155-0.346,0.348v2.834C49.422,45.426,49.576,45.579,49.768,45.579z"/>
			</g>
			<g>
				<path fill="#63B2BA" d="M47.359,46.995c0.191,0,0.348-0.155,0.348-0.346v-2.834c0-0.191-0.156-0.348-0.348-0.348
					s-0.348,0.156-0.348,0.348v2.834C47.012,46.84,47.168,46.995,47.359,46.995z"/>
			</g>
			<g>
				<path fill="#63B2BA" d="M44.951,48.411c0.193,0,0.346-0.153,0.346-0.349v-2.831c0-0.189-0.152-0.347-0.346-0.347
					s-0.348,0.157-0.348,0.347v2.831C44.604,48.258,44.758,48.411,44.951,48.411z"/>
			</g>
			<g>
				<path fill="#63B2BA" d="M42.543,49.828c0.191,0,0.346-0.157,0.346-0.347v-2.836c0-0.188-0.154-0.345-0.346-0.345
					c-0.193,0-0.348,0.157-0.348,0.345v2.836C42.195,49.671,42.35,49.828,42.543,49.828z"/>
			</g>
			<g>
				<path fill="#63B2BA" d="M40.527,50.81c0.191,0,0.348-0.156,0.348-0.349v-2.833c0-0.189-0.156-0.344-0.348-0.344
					s-0.348,0.154-0.348,0.344v2.833C40.18,50.653,40.336,50.81,40.527,50.81z"/>
			</g>
		</g>
		<g>
			<g>
				<polygon opacity="0.4" fill="#BCC1AA" points="65.002,63.802 8.541,96.399 65.002,129 121.463,96.399 				"/>
				<g>
					<polygon fill="#D33218" points="23.803,79.69 23.803,95.133 65.002,118.919 65.002,103.478 					"/>
					<g>
						<path opacity="0.1" fill="#252828" d="M44.918,110.204c0.137-0.079,0.137-0.207,0-0.285l-6.541-3.777
							c-0.137-0.08-0.359-0.08-0.494,0l-1.617,0.932c-0.135,0.08-0.135,0.208,0,0.287l6.541,3.777c0.137,0.079,0.359,0.079,0.496,0
							L44.918,110.204z"/>
						<g>
							<g>
								<g>
									<polygon fill="#3B4F4D" points="37.463,105.097 37.463,107.138 37.607,107.056 37.732,104.942 									"/>
									<polygon fill="#648280" points="37.463,105.097 37.463,107.138 37.32,107.056 37.195,104.942 									"/>
									<polyline fill="#4E6866" points="37.195,104.942 37.463,105.097 37.463,107.138 									"/>
									<polygon fill="#5B2907" points="37.732,104.942 37.463,105.097 37.195,104.942 37.463,104.786 									"/>
								</g>
							</g>
							<g>
								<g>
									<path fill="#648280" d="M36.996,107.558c-0.053,0-0.105-0.027-0.133-0.078c-0.043-0.072-0.018-0.167,0.057-0.212
										l1.064-0.612c0.072-0.045,0.168-0.019,0.211,0.057c0.043,0.072,0.018,0.168-0.057,0.212l-1.064,0.613
										C37.051,107.552,37.023,107.558,36.996,107.558z"/>
								</g>
								<path fill="#3B4F4D" d="M38.078,106.717l-1.064,0.615c-0.074,0.042-0.098,0.138-0.057,0.212
									c0.002,0.005,0.006,0.008,0.008,0.011c0.012,0.002,0.021,0.003,0.031,0.003c0.027,0,0.055-0.006,0.078-0.021l1.064-0.613
									c0.074-0.044,0.1-0.14,0.057-0.212c-0.002-0.005-0.004-0.008-0.006-0.011C38.152,106.692,38.113,106.697,38.078,106.717z"/>
								<g>
									<path fill="#648280" d="M43.932,110.481c0.039,0,0.08-0.02,0.1-0.056c0.031-0.055,0.014-0.125-0.041-0.157l-6.346-3.664
										c-0.055-0.031-0.125-0.012-0.156,0.043s-0.012,0.125,0.041,0.155l6.346,3.665
										C43.893,110.478,43.912,110.481,43.932,110.481z"/>
								</g>
								<g>
									<path fill="#648280" d="M43.48,111.008c-0.053,0-0.105-0.027-0.133-0.078c-0.043-0.073-0.02-0.169,0.055-0.211l1.064-0.615
										c0.074-0.042,0.17-0.018,0.213,0.058c0.043,0.074,0.018,0.169-0.057,0.211l-1.064,0.615
										C43.533,111.002,43.508,111.008,43.48,111.008z"/>
								</g>
								<path fill="#3B4F4D" d="M44.562,110.167l-1.064,0.615c-0.074,0.043-0.1,0.137-0.057,0.211
									c0.002,0.004,0.004,0.007,0.008,0.011c0.01,0.001,0.021,0.004,0.031,0.004c0.027,0,0.053-0.006,0.078-0.021l1.064-0.615
									c0.074-0.042,0.1-0.137,0.057-0.211c-0.004-0.004-0.006-0.008-0.008-0.012C44.637,110.144,44.598,110.146,44.562,110.167z"
									/>
								<path fill="#4E6866" d="M37.645,106.604l6.346,3.664c0.008,0.006,0.016,0.012,0.021,0.019
									c-0.02,0.021-0.051,0.032-0.08,0.032c-0.02,0-0.039-0.006-0.057-0.014l-6.346-3.665c-0.008-0.004-0.016-0.011-0.023-0.019
									C37.543,106.587,37.598,106.579,37.645,106.604z"/>
							</g>
							<g>
								<g>
									<polygon fill="#3B4F4D" points="44.012,108.601 44.012,110.643 44.156,110.56 44.281,108.446 									"/>
									<polygon fill="#648280" points="44.012,108.601 44.012,110.643 43.869,110.56 43.744,108.446 									"/>
									<polyline fill="#4E6866" points="43.744,108.446 44.012,108.601 44.012,110.643 									"/>
									<polygon fill="#5B2907" points="44.281,108.446 44.012,108.601 43.744,108.446 44.012,108.292 									"/>
								</g>
							</g>
							<path fill="#3B4F4D" d="M36.232,104.825l1.65-0.66c0.135-0.078,0.357-0.078,0.494,0l6.498,3.752l0,0l0.086-0.186
								c0.137,0.078,0.094,0.418-0.043,0.496l-1.615,0.934c-0.137,0.078-0.359,0.078-0.496,0l-6.541-3.776
								C36.131,105.306,36.096,104.904,36.232,104.825z"/>
							<g>
								<path fill="#4E6866" d="M44.918,107.913c0.137-0.08,0.137-0.207,0-0.286l-6.541-3.776c-0.137-0.08-0.359-0.08-0.494,0
									l-1.617,0.933c-0.135,0.078-0.135,0.206,0,0.285l6.541,3.776c0.137,0.081,0.359,0.081,0.496,0L44.918,107.913z"/>
								<path fill="#729390" d="M37.883,103.851c0.135-0.08,0.357-0.08,0.494,0l6.498,3.75l-1.572,0.908
									c-0.137,0.08-0.359,0.08-0.496,0l-6.498-3.75L37.883,103.851z"/>
								<path fill="#648280" d="M44.875,107.601l-1.572,0.908c-0.137,0.08-0.359,0.08-0.496,0l-6.498-3.75"/>
							</g>
						</g>
					</g>
					<g>
						<path opacity="0.1" fill="#252828" d="M34.719,104.358c0.137-0.078,0.137-0.206,0-0.285l-6.541-3.776
							c-0.137-0.079-0.357-0.079-0.494,0l-1.617,0.933c-0.135,0.078-0.135,0.207,0,0.287l6.541,3.776
							c0.137,0.078,0.359,0.078,0.496,0L34.719,104.358z"/>
						<g>
							<g>
								<g>
									<polygon fill="#3B4F4D" points="27.264,99.253 27.264,101.293 27.408,101.212 27.533,99.097 									"/>
									<polygon fill="#648280" points="27.264,99.253 27.264,101.293 27.121,101.212 26.996,99.097 									"/>
									<polyline fill="#4E6866" points="26.996,99.097 27.264,99.253 27.264,101.293 									"/>
									<polygon fill="#5B2907" points="27.533,99.097 27.264,99.253 26.996,99.097 27.264,98.942 									"/>
								</g>
							</g>
							<g>
								<g>
									<path fill="#648280" d="M26.799,101.715c-0.055,0-0.107-0.029-0.135-0.079c-0.043-0.073-0.018-0.168,0.057-0.212
										l1.064-0.614c0.074-0.043,0.168-0.018,0.211,0.058c0.043,0.073,0.018,0.169-0.057,0.212l-1.064,0.613
										C26.852,101.706,26.824,101.715,26.799,101.715z"/>
								</g>
								<path fill="#3B4F4D" d="M27.879,100.872l-1.064,0.615c-0.074,0.043-0.098,0.137-0.055,0.213c0,0.003,0.004,0.006,0.006,0.01
									c0.012,0.002,0.021,0.005,0.033,0.005c0.025,0,0.053-0.009,0.076-0.022l1.064-0.613c0.074-0.043,0.1-0.139,0.057-0.212
									c-0.002-0.005-0.004-0.008-0.006-0.011C27.953,100.848,27.914,100.853,27.879,100.872z"/>
								<g>
									<path fill="#648280" d="M33.732,104.638c0.041,0,0.08-0.021,0.1-0.057c0.031-0.055,0.014-0.126-0.041-0.157l-6.346-3.663
										c-0.055-0.031-0.125-0.014-0.156,0.043c-0.031,0.054-0.012,0.124,0.043,0.154l6.344,3.664
										C33.693,104.635,33.715,104.638,33.732,104.638z"/>
								</g>
								<g>
									<path fill="#648280" d="M33.281,105.163c-0.053,0-0.105-0.027-0.133-0.078c-0.043-0.072-0.018-0.168,0.057-0.211
										l1.062-0.615c0.074-0.042,0.17-0.018,0.213,0.057c0.043,0.076,0.018,0.17-0.057,0.213l-1.064,0.615
										C33.336,105.157,33.309,105.163,33.281,105.163z"/>
								</g>
								<path fill="#3B4F4D" d="M34.363,104.322l-1.064,0.615c-0.074,0.042-0.1,0.138-0.057,0.211
									c0.002,0.003,0.004,0.007,0.008,0.011c0.01,0.002,0.021,0.004,0.031,0.004c0.027,0,0.055-0.006,0.078-0.02l1.064-0.615
									c0.074-0.043,0.1-0.137,0.057-0.213c-0.002-0.003-0.004-0.006-0.008-0.01C34.438,104.299,34.398,104.302,34.363,104.322z"/>
								<path fill="#4E6866" d="M27.445,100.761l6.346,3.663c0.008,0.005,0.016,0.012,0.023,0.019
									c-0.021,0.022-0.051,0.032-0.082,0.032c-0.018,0-0.039-0.005-0.057-0.015l-6.344-3.664c-0.01-0.004-0.018-0.011-0.023-0.018
									C27.344,100.742,27.4,100.734,27.445,100.761z"/>
							</g>
							<g>
								<g>
									<polygon fill="#3B4F4D" points="33.814,102.758 33.814,104.799 33.957,104.717 34.082,102.603 									"/>
									<polygon fill="#648280" points="33.814,102.758 33.814,104.799 33.67,104.717 33.545,102.603 									"/>
									<polyline fill="#4E6866" points="33.545,102.603 33.814,102.758 33.814,104.799 									"/>
									<polygon fill="#5B2907" points="34.082,102.603 33.814,102.758 33.545,102.603 33.814,102.447 									"/>
								</g>
							</g>
							<path fill="#3B4F4D" d="M26.033,98.981l1.65-0.661c0.137-0.077,0.357-0.077,0.494,0l6.498,3.752l0,0l0.088-0.186
								c0.135,0.08,0.092,0.419-0.045,0.498l-1.615,0.932c-0.137,0.078-0.359,0.078-0.496,0l-6.541-3.777
								C25.932,99.461,25.896,99.06,26.033,98.981z"/>
							<g>
								<path fill="#4E6866" d="M34.719,102.068c0.137-0.079,0.137-0.206,0-0.286l-6.541-3.777c-0.137-0.078-0.357-0.078-0.494,0
									l-1.617,0.934c-0.135,0.078-0.135,0.207,0,0.285l6.541,3.777c0.137,0.079,0.359,0.079,0.496,0L34.719,102.068z"/>
								<path fill="#729390" d="M27.684,98.005c0.137-0.078,0.357-0.078,0.494,0l6.498,3.753l-1.572,0.907
									c-0.137,0.079-0.359,0.079-0.496,0l-6.498-3.752L27.684,98.005z"/>
								<path fill="#648280" d="M34.676,101.758l-1.572,0.907c-0.137,0.079-0.359,0.079-0.496,0l-6.498-3.752"/>
							</g>
						</g>
					</g>
					<g>
						<path opacity="0.1" fill="#252828" d="M24.52,98.515c0.137-0.078,0.137-0.207,0-0.285l-6.541-3.777
							c-0.137-0.079-0.357-0.079-0.494,0l-1.615,0.933c-0.137,0.08-0.137,0.208,0,0.286l6.539,3.777
							c0.137,0.078,0.359,0.078,0.496,0L24.52,98.515z"/>
						<g>
							<g>
								<g>
									<polygon fill="#3B4F4D" points="17.064,93.407 17.064,95.448 17.209,95.366 17.334,93.253 									"/>
									<polygon fill="#648280" points="17.064,93.407 17.064,95.448 16.922,95.366 16.799,93.253 									"/>
									<polyline fill="#4E6866" points="16.799,93.253 17.064,93.407 17.064,95.448 									"/>
									<polygon fill="#5B2907" points="17.334,93.253 17.064,93.407 16.799,93.253 17.064,93.098 									"/>
								</g>
							</g>
							<g>
								<g>
									<path fill="#648280" d="M16.6,95.869c-0.055,0-0.107-0.027-0.135-0.078c-0.043-0.073-0.018-0.167,0.057-0.212l1.064-0.612
										c0.074-0.045,0.168-0.019,0.211,0.056c0.043,0.073,0.02,0.168-0.057,0.213l-1.064,0.613
										C16.652,95.862,16.625,95.869,16.6,95.869z"/>
								</g>
								<path fill="#3B4F4D" d="M17.68,95.028l-1.064,0.615c-0.072,0.042-0.098,0.137-0.055,0.211
									c0.002,0.004,0.004,0.008,0.006,0.012c0.012,0.002,0.021,0.003,0.033,0.003c0.025,0,0.053-0.007,0.076-0.021l1.064-0.613
									c0.076-0.045,0.1-0.14,0.057-0.213c-0.002-0.004-0.004-0.008-0.006-0.01C17.754,95.003,17.715,95.009,17.68,95.028z"/>
								<g>
									<path fill="#648280" d="M23.533,98.792c0.041,0,0.08-0.02,0.1-0.056c0.031-0.054,0.014-0.126-0.041-0.157l-6.346-3.664
										c-0.055-0.03-0.125-0.012-0.156,0.043s-0.012,0.125,0.043,0.156l6.344,3.664C23.496,98.789,23.516,98.792,23.533,98.792z"
										/>
								</g>
								<g>
									<path fill="#648280" d="M23.082,99.318c-0.053,0-0.104-0.026-0.133-0.077c-0.043-0.074-0.018-0.169,0.057-0.212
										l1.062-0.614c0.074-0.043,0.172-0.018,0.213,0.057c0.043,0.074,0.018,0.17-0.057,0.212l-1.064,0.615
										C23.137,99.313,23.109,99.318,23.082,99.318z"/>
								</g>
								<path fill="#3B4F4D" d="M24.164,98.478L23.1,99.093c-0.074,0.043-0.1,0.137-0.057,0.211
									c0.002,0.004,0.006,0.008,0.008,0.012c0.01,0.001,0.021,0.003,0.031,0.003c0.027,0,0.055-0.005,0.078-0.02l1.064-0.615
									c0.074-0.042,0.1-0.138,0.057-0.212c-0.002-0.004-0.004-0.007-0.008-0.011C24.238,98.454,24.199,98.458,24.164,98.478z"/>
								<path fill="#4E6866" d="M17.246,94.915l6.346,3.664c0.008,0.006,0.018,0.013,0.023,0.02
									c-0.021,0.021-0.051,0.031-0.082,0.031c-0.018,0-0.037-0.005-0.057-0.014l-6.344-3.665
									c-0.008-0.003-0.018-0.011-0.023-0.018C17.145,94.897,17.201,94.89,17.246,94.915z"/>
							</g>
							<g>
								<g>
									<polygon fill="#3B4F4D" points="23.615,96.912 23.615,98.954 23.758,98.871 23.883,96.758 									"/>
									<polygon fill="#648280" points="23.615,96.912 23.615,98.954 23.471,98.871 23.346,96.758 									"/>
									<polyline fill="#4E6866" points="23.346,96.758 23.615,96.912 23.615,98.954 									"/>
									<polygon fill="#5B2907" points="23.883,96.758 23.615,96.912 23.346,96.758 23.615,96.603 									"/>
								</g>
							</g>
							<path fill="#3B4F4D" d="M15.834,93.137l1.65-0.661c0.137-0.078,0.357-0.078,0.494,0l6.498,3.752l0,0l0.088-0.186
								c0.135,0.078,0.092,0.419-0.045,0.496l-1.615,0.934c-0.137,0.079-0.359,0.079-0.496,0l-6.539-3.777
								C15.732,93.616,15.697,93.217,15.834,93.137z"/>
							<g>
								<path fill="#4E6866" d="M24.52,96.224c0.137-0.079,0.137-0.207,0-0.285l-6.541-3.777c-0.137-0.08-0.357-0.08-0.494,0
									l-1.615,0.934c-0.137,0.079-0.137,0.206,0,0.285l6.539,3.776c0.137,0.079,0.359,0.079,0.496,0L24.52,96.224z"/>
								<path fill="#729390" d="M17.484,92.161c0.137-0.08,0.357-0.08,0.494,0l6.498,3.751l-1.572,0.908
									c-0.137,0.079-0.359,0.079-0.496,0l-6.496-3.751L17.484,92.161z"/>
								<path fill="#648280" d="M24.477,95.912l-1.572,0.908c-0.137,0.079-0.359,0.079-0.496,0l-6.496-3.751"/>
							</g>
						</g>
					</g>
					<g>
						<path opacity="0.1" fill="#252828" d="M65.078,121.874c0.137-0.078,0.137-0.206,0-0.285l-6.541-3.776
							c-0.137-0.079-0.357-0.079-0.494,0l-1.615,0.933c-0.137,0.079-0.137,0.207,0,0.287l6.539,3.776
							c0.137,0.079,0.359,0.079,0.496,0L65.078,121.874z"/>
						<g>
							<g>
								<g>
									<polygon fill="#3B4F4D" points="57.623,116.769 57.623,118.81 57.768,118.728 57.893,116.612 									"/>
									<polygon fill="#648280" points="57.623,116.769 57.623,118.81 57.48,118.728 57.357,116.612 									"/>
									<polyline fill="#4E6866" points="57.357,116.612 57.623,116.769 57.623,118.81 									"/>
									<polygon fill="#5B2907" points="57.893,116.612 57.623,116.769 57.357,116.612 57.623,116.458 									"/>
								</g>
							</g>
							<g>
								<g>
									<path fill="#648280" d="M57.158,119.229c-0.055,0-0.105-0.028-0.135-0.078c-0.043-0.073-0.018-0.168,0.057-0.213
										l1.064-0.613c0.074-0.043,0.168-0.018,0.211,0.058c0.043,0.073,0.02,0.169-0.057,0.212l-1.062,0.613
										C57.211,119.222,57.186,119.229,57.158,119.229z"/>
								</g>
								<path fill="#3B4F4D" d="M58.238,118.388l-1.062,0.615c-0.074,0.043-0.1,0.138-0.057,0.214
									c0.002,0.002,0.004,0.005,0.006,0.009c0.012,0.002,0.021,0.004,0.033,0.004c0.027,0,0.053-0.008,0.078-0.021l1.062-0.613
									c0.076-0.043,0.1-0.139,0.057-0.212c-0.002-0.005-0.004-0.008-0.006-0.011C58.312,118.363,58.273,118.368,58.238,118.388z"
									/>
								<g>
									<path fill="#648280" d="M64.092,122.153c0.041,0,0.08-0.019,0.1-0.057c0.031-0.055,0.014-0.126-0.041-0.157l-6.346-3.663
										c-0.055-0.031-0.125-0.013-0.156,0.043c-0.031,0.054-0.012,0.124,0.043,0.154l6.346,3.664
										C64.055,122.149,64.074,122.153,64.092,122.153z"/>
								</g>
								<g>
									<path fill="#648280" d="M63.641,122.679c-0.053,0-0.104-0.027-0.133-0.078c-0.043-0.072-0.018-0.168,0.057-0.211
										l1.064-0.615c0.072-0.043,0.17-0.017,0.211,0.058c0.043,0.075,0.018,0.169-0.057,0.212l-1.064,0.615
										C63.695,122.674,63.668,122.679,63.641,122.679z"/>
								</g>
								<path fill="#3B4F4D" d="M64.723,121.838l-1.062,0.615c-0.076,0.042-0.102,0.139-0.059,0.211
									c0.002,0.004,0.006,0.007,0.008,0.012c0.01,0.001,0.021,0.003,0.031,0.003c0.027,0,0.055-0.005,0.078-0.02l1.064-0.615
									c0.074-0.043,0.1-0.137,0.057-0.212c-0.002-0.004-0.004-0.007-0.008-0.011C64.797,121.813,64.758,121.817,64.723,121.838z"
									/>
								<path fill="#4E6866" d="M57.805,118.276l6.346,3.663c0.008,0.005,0.018,0.012,0.023,0.019
									c-0.021,0.021-0.051,0.033-0.082,0.033c-0.018,0-0.037-0.006-0.055-0.016l-6.346-3.664
									c-0.008-0.004-0.018-0.011-0.023-0.018C57.705,118.259,57.76,118.25,57.805,118.276z"/>
							</g>
							<g>
								<g>
									<polygon fill="#3B4F4D" points="64.174,120.272 64.174,122.313 64.316,122.231 64.441,120.118 									"/>
									<polygon fill="#648280" points="64.174,120.272 64.174,122.313 64.029,122.231 63.904,120.118 									"/>
									<polyline fill="#4E6866" points="63.904,120.118 64.174,120.272 64.174,122.313 									"/>
									<polygon fill="#5B2907" points="64.441,120.118 64.174,120.272 63.904,120.118 64.174,119.963 									"/>
								</g>
							</g>
							<path fill="#3B4F4D" d="M56.393,116.497l1.65-0.661c0.137-0.077,0.357-0.077,0.494,0l6.498,3.752l0,0l0.088-0.186
								c0.135,0.079,0.092,0.419-0.045,0.497l-1.615,0.933c-0.137,0.078-0.359,0.078-0.496,0l-6.539-3.776
								C56.291,116.977,56.258,116.575,56.393,116.497z"/>
							<g>
								<path fill="#4E6866" d="M65.078,119.585c0.137-0.08,0.137-0.207,0-0.286l-6.541-3.778c-0.137-0.078-0.357-0.078-0.494,0
									l-1.615,0.934c-0.137,0.078-0.137,0.207,0,0.285l6.539,3.777c0.137,0.079,0.359,0.079,0.496,0L65.078,119.585z"/>
								<path fill="#729390" d="M58.043,115.521c0.137-0.078,0.357-0.078,0.494,0l6.498,3.752l-1.572,0.908
									c-0.137,0.079-0.359,0.079-0.496,0l-6.496-3.752L58.043,115.521z"/>
								<path fill="#648280" d="M65.035,119.272l-1.572,0.908c-0.137,0.079-0.359,0.079-0.496,0l-6.496-3.752"/>
							</g>
						</g>
					</g>
					<g>
						<path opacity="0.1" fill="#252828" d="M54.881,116.03c0.135-0.078,0.135-0.207,0-0.285l-6.543-3.777
							c-0.135-0.079-0.357-0.079-0.494,0l-1.615,0.933c-0.137,0.079-0.137,0.208,0,0.286l6.541,3.778
							c0.135,0.077,0.357,0.077,0.494,0L54.881,116.03z"/>
						<g>
							<g>
								<g>
									<polygon fill="#3B4F4D" points="47.426,110.924 47.426,112.965 47.57,112.883 47.693,110.769 									"/>
									<polygon fill="#648280" points="47.426,110.924 47.426,112.965 47.281,112.883 47.158,110.769 									"/>
									<polyline fill="#4E6866" points="47.158,110.769 47.426,110.924 47.426,112.965 									"/>
									<polygon fill="#5B2907" points="47.693,110.769 47.426,110.924 47.158,110.769 47.426,110.613 									"/>
								</g>
							</g>
							<g>
								<g>
									<path fill="#648280" d="M46.959,113.386c-0.053,0-0.105-0.029-0.135-0.079c-0.043-0.073-0.018-0.167,0.057-0.212
										l1.064-0.613c0.074-0.044,0.168-0.017,0.211,0.057s0.02,0.169-0.057,0.213l-1.062,0.613
										C47.012,113.378,46.986,113.386,46.959,113.386z"/>
								</g>
								<path fill="#3B4F4D" d="M48.039,112.544l-1.062,0.615c-0.074,0.043-0.1,0.137-0.057,0.211
									c0.002,0.004,0.004,0.008,0.008,0.013c0.01,0.002,0.021,0.003,0.031,0.003c0.027,0,0.053-0.008,0.078-0.021l1.062-0.613
									c0.076-0.044,0.1-0.14,0.057-0.213c-0.002-0.004-0.004-0.008-0.006-0.01C48.113,112.519,48.074,112.524,48.039,112.544z"/>
								<g>
									<path fill="#648280" d="M53.893,116.308c0.041,0,0.08-0.02,0.102-0.056c0.029-0.054,0.012-0.126-0.043-0.157l-6.346-3.663
										c-0.055-0.031-0.125-0.013-0.156,0.042s-0.012,0.125,0.043,0.156l6.346,3.664
										C53.855,116.305,53.875,116.308,53.893,116.308z"/>
								</g>
								<g>
									<path fill="#648280" d="M53.443,116.834c-0.055,0-0.105-0.026-0.135-0.076c-0.043-0.074-0.018-0.17,0.057-0.212
										l1.064-0.615c0.074-0.043,0.17-0.018,0.211,0.057c0.043,0.074,0.018,0.17-0.055,0.212l-1.066,0.615
										C53.496,116.829,53.469,116.834,53.443,116.834z"/>
								</g>
								<path fill="#3B4F4D" d="M54.523,115.993l-1.062,0.615c-0.076,0.043-0.1,0.137-0.059,0.211
									c0.002,0.004,0.006,0.008,0.008,0.012c0.012,0.001,0.021,0.003,0.033,0.003c0.025,0,0.053-0.005,0.076-0.02l1.066-0.615
									c0.072-0.042,0.098-0.138,0.055-0.212c-0.002-0.004-0.004-0.008-0.006-0.011C54.598,115.97,54.559,115.974,54.523,115.993z"
									/>
								<path fill="#4E6866" d="M47.605,112.432l6.346,3.663c0.01,0.006,0.018,0.012,0.023,0.02
									c-0.021,0.021-0.051,0.031-0.082,0.031c-0.018,0-0.037-0.005-0.055-0.013l-6.346-3.665
									c-0.008-0.003-0.016-0.012-0.023-0.019C47.506,112.413,47.561,112.405,47.605,112.432z"/>
							</g>
							<g>
								<g>
									<polygon fill="#3B4F4D" points="53.975,114.428 53.975,116.47 54.117,116.387 54.242,114.273 									"/>
									<polygon fill="#648280" points="53.975,114.428 53.975,116.47 53.83,116.387 53.707,114.273 									"/>
									<polyline fill="#4E6866" points="53.707,114.273 53.975,114.428 53.975,116.47 									"/>
									<polygon fill="#5B2907" points="54.242,114.273 53.975,114.428 53.707,114.273 53.975,114.118 									"/>
								</g>
							</g>
							<path fill="#3B4F4D" d="M46.193,110.653l1.65-0.662c0.137-0.078,0.359-0.078,0.494,0l6.498,3.752l0,0l0.088-0.186
								c0.135,0.078,0.092,0.419-0.043,0.496l-1.617,0.934c-0.137,0.078-0.359,0.078-0.494,0l-6.541-3.777
								C46.092,111.133,46.059,110.731,46.193,110.653z"/>
							<g>
								<path fill="#4E6866" d="M54.881,113.739c0.135-0.078,0.135-0.206,0-0.285l-6.543-3.777c-0.135-0.08-0.357-0.08-0.494,0
									l-1.615,0.934c-0.137,0.078-0.137,0.206,0,0.285l6.541,3.776c0.135,0.079,0.357,0.079,0.494,0L54.881,113.739z"/>
								<path fill="#729390" d="M47.844,109.677c0.137-0.08,0.359-0.08,0.494,0l6.498,3.751l-1.572,0.908
									c-0.137,0.079-0.359,0.079-0.494,0l-6.498-3.751L47.844,109.677z"/>
								<path fill="#648280" d="M54.836,113.428l-1.572,0.908c-0.137,0.079-0.359,0.079-0.494,0l-6.498-3.751"/>
							</g>
						</g>
					</g>
					<polygon fill="#702D0F" points="106.201,79.69 106.201,95.133 65.002,118.919 65.002,103.478 					"/>
					<polygon fill="#F43F00" points="23.803,76.793 23.803,92.233 65.002,116.022 65.002,100.584 					"/>
					<polyline fill="#D33218" points="65.002,116.022 65.002,100.584 23.803,76.793 					"/>
					<polygon fill="#8E2D06" points="106.201,76.793 106.201,92.233 65.002,116.022 65.002,100.584 					"/>
					<polyline fill="#702D0F" points="65.002,116.022 65.002,100.584 106.201,76.793 					"/>
				</g>
				<g>
					<g>
						<g>
							<g>
								<g>
									<polygon fill="#13AACE" points="25.055,87.856 28.34,89.751 28.34,93.544 25.055,91.648 									"/>
									<polyline fill="#1CCDEA" points="28.34,89.751 28.34,93.544 25.055,91.648 									"/>
									<polygon fill="#1872B5" points="25.588,91.351 28.34,92.94 28.34,89.751 25.588,88.163 									"/>
									<polyline fill="#0D659B" points="28.34,92.94 28.34,89.751 25.588,88.163 									"/>
								</g>
							</g>
						</g>
					</g>
					<g>
						<g>
							<g>
								<g>
									<polygon fill="#13AACE" points="29.48,90.409 32.766,92.303 32.766,96.098 29.48,94.199 									"/>
									<polyline fill="#1CCDEA" points="32.766,92.303 32.766,96.098 29.48,94.199 									"/>
									<polygon fill="#1872B5" points="30.014,93.903 32.766,95.491 32.766,92.303 30.014,90.715 									"/>
									<polyline fill="#0D659B" points="32.766,95.491 32.766,92.303 30.014,90.715 									"/>
								</g>
							</g>
						</g>
					</g>
					<g>
						<g>
							<g>
								<g>
									<polygon fill="#13AACE" points="33.906,92.96 37.191,94.854 37.191,98.647 33.906,96.751 									"/>
									<polyline fill="#1CCDEA" points="37.191,94.854 37.191,98.647 33.906,96.751 									"/>
									<polygon fill="#1872B5" points="34.439,96.454 37.191,98.045 37.191,94.854 34.439,93.267 									"/>
									<polyline fill="#0D659B" points="37.191,98.045 37.191,94.854 34.439,93.267 									"/>
								</g>
							</g>
						</g>
					</g>
					<g>
						<g>
							<g>
								<g>
									<polygon fill="#13AACE" points="38.332,95.514 41.615,97.407 41.615,101.201 38.332,99.304 									"/>
									<polyline fill="#1CCDEA" points="41.615,97.407 41.615,101.201 38.332,99.304 									"/>
									<polygon fill="#1872B5" points="38.865,99.008 41.615,100.597 41.615,97.407 38.865,95.818 									"/>
									<polyline fill="#0D659B" points="41.615,100.597 41.615,97.407 38.865,95.818 									"/>
								</g>
							</g>
						</g>
					</g>
					<g>
						<g>
							<g>
								<g>
									<polygon fill="#13AACE" points="42.758,98.063 46.043,99.96 46.043,103.753 42.758,101.856 									"/>
									<polyline fill="#1CCDEA" points="46.043,99.96 46.043,103.753 42.758,101.856 									"/>
									<polygon fill="#1872B5" points="43.291,101.559 46.043,103.147 46.043,99.96 43.291,98.371 									"/>
									<polyline fill="#0D659B" points="46.043,103.147 46.043,99.96 43.291,98.371 									"/>
								</g>
							</g>
						</g>
					</g>
					<g>
						<g>
							<g>
								<g>
									<polygon fill="#13AACE" points="47.184,100.618 50.469,102.511 50.469,106.304 47.184,104.407 									"/>
									<polyline fill="#1CCDEA" points="50.469,102.511 50.469,106.304 47.184,104.407 									"/>
									<polygon fill="#1872B5" points="47.719,104.111 50.469,105.7 50.469,102.511 47.719,100.924 									"/>
									<polyline fill="#0D659B" points="50.469,105.7 50.469,102.511 47.719,100.924 									"/>
								</g>
							</g>
						</g>
					</g>
					<g>
						<g>
							<g>
								<g>
									<polygon fill="#13AACE" points="51.611,103.167 54.895,105.063 54.895,108.856 51.611,106.96 									"/>
									<polyline fill="#1CCDEA" points="54.895,105.063 54.895,108.856 51.611,106.96 									"/>
									<polygon fill="#1872B5" points="52.145,106.663 54.895,108.251 54.895,105.063 52.145,103.474 									"/>
									<polyline fill="#0D659B" points="54.895,108.251 54.895,105.063 52.145,103.474 									"/>
								</g>
							</g>
						</g>
					</g>
					<g>
						<g>
							<g>
								<g>
									<polygon fill="#13AACE" points="56.037,105.722 59.32,107.615 59.32,111.407 56.037,109.512 									"/>
									<polyline fill="#1CCDEA" points="59.32,107.615 59.32,111.407 56.037,109.512 									"/>
									<polygon fill="#1872B5" points="56.57,109.215 59.32,110.804 59.32,107.615 56.57,106.026 									"/>
									<polyline fill="#0D659B" points="59.32,110.804 59.32,107.615 56.57,106.026 									"/>
								</g>
							</g>
						</g>
					</g>
					<g>
						<g>
							<g>
								<g>
									<polygon fill="#13AACE" points="60.463,108.272 63.748,110.168 63.748,113.96 60.463,112.063 									"/>
									<polyline fill="#1CCDEA" points="63.748,110.168 63.748,113.96 60.463,112.063 									"/>
									<polygon fill="#1872B5" points="60.994,111.766 63.748,113.355 63.748,110.168 60.994,108.581 									"/>
									<polyline fill="#0D659B" points="63.748,113.355 63.748,110.168 60.994,108.581 									"/>
								</g>
							</g>
						</g>
					</g>
				</g>
				<g>
					<g>
						<g>
							<g>
								<g>
									<polygon fill="#13AACE" points="105.09,87.856 101.805,89.751 101.805,93.544 105.09,91.648 									"/>
									<polyline fill="#1CCDEA" points="101.805,89.751 101.805,93.544 105.09,91.648 									"/>
									<polygon fill="#1872B5" points="104.555,91.351 101.805,92.94 101.805,89.751 104.555,88.163 									"/>
									<polyline fill="#0D659B" points="101.805,92.94 101.805,89.751 104.555,88.163 									"/>
								</g>
							</g>
						</g>
					</g>
					<g>
						<g>
							<g>
								<g>
									<polygon fill="#13AACE" points="100.664,90.409 97.379,92.303 97.379,96.098 100.664,94.199 									"/>
									<polyline fill="#1CCDEA" points="97.379,92.303 97.379,96.098 100.664,94.199 									"/>
									<polygon fill="#1872B5" points="100.129,93.903 97.379,95.491 97.379,92.303 100.129,90.715 									"/>
									<polyline fill="#0D659B" points="97.379,95.491 97.379,92.303 100.129,90.715 									"/>
								</g>
							</g>
						</g>
					</g>
					<g>
						<g>
							<g>
								<g>
									<polygon fill="#13AACE" points="96.238,92.96 92.953,94.854 92.953,98.647 96.238,96.751 									"/>
									<polyline fill="#1CCDEA" points="92.953,94.854 92.953,98.647 96.238,96.751 									"/>
									<polygon fill="#1872B5" points="95.705,96.454 92.953,98.045 92.953,94.854 95.705,93.267 									"/>
									<polyline fill="#0D659B" points="92.953,98.045 92.953,94.854 95.705,93.267 									"/>
								</g>
							</g>
						</g>
					</g>
					<g>
						<g>
							<g>
								<g>
									<polygon fill="#13AACE" points="91.812,95.514 88.527,97.407 88.527,101.201 91.812,99.304 									"/>
									<polyline fill="#1CCDEA" points="88.527,97.407 88.527,101.201 91.812,99.304 									"/>
									<polygon fill="#1872B5" points="91.277,99.008 88.527,100.597 88.527,97.407 91.277,95.818 									"/>
									<polyline fill="#0D659B" points="88.527,100.597 88.527,97.407 91.277,95.818 									"/>
								</g>
							</g>
						</g>
					</g>
					<g>
						<g>
							<g>
								<g>
									<polygon fill="#13AACE" points="87.387,98.063 84.102,99.96 84.102,103.753 87.387,101.856 									"/>
									<polyline fill="#1CCDEA" points="84.102,99.96 84.102,103.753 87.387,101.856 									"/>
									<polygon fill="#1872B5" points="86.852,101.559 84.102,103.147 84.102,99.96 86.852,98.371 									"/>
									<polyline fill="#0D659B" points="84.102,103.147 84.102,99.96 86.852,98.371 									"/>
								</g>
							</g>
						</g>
					</g>
				</g>
				<g>
					<g>
						<g>
							<g>
								<g>
									<g>
										<g>
											<g>
												<g>
													<g>
														<polygon fill="#A3540D" points="14.924,95.114 13.152,94.092 14.924,93.065 16.699,94.092 														"/>
														<polyline fill="#874107" points="14.924,93.065 16.699,94.092 14.924,95.114 														"/>
														<g>
															<polygon fill="#BA7625" points="14.17,74.397 14.926,74.833 14.926,94.444 14.17,94.009 															"/>
															<polygon fill="#A3540D" points="15.678,74.397 14.926,74.833 14.926,94.444 15.678,94.009 															"/>
														</g>
														<g>
															<polygon fill="#A3540D" points="14.17,84.759 14.926,85.192 14.926,74.833 14.17,74.397 															"/>
															<polygon fill="#7F3D06" points="14.926,85.192 15.678,84.759 15.678,74.397 14.926,74.833 															"/>
														</g>
													</g>
												</g>
											</g>
										</g>
									</g>
								</g>
								<polygon fill="#B76C2E" points="14.924,73.949 14.17,74.397 14.926,74.833 15.678,74.397 								"/>
							</g>
							<g>
								<g>
									<g>
										<g>
											<g>
												<g>
													<g>
														<polygon fill="#A3540D" points="65.018,123.959 63.248,122.935 65.018,121.909 66.793,122.935 														"/>
														<polyline fill="#874107" points="65.018,121.909 66.793,122.935 65.018,123.959 														"/>
														<g>
															<polygon fill="#BA7625" points="64.266,103.241 65.021,103.677 65.021,123.288 64.266,122.853 															"/>
															<polygon fill="#A3540D" points="65.771,103.241 65.021,103.677 65.021,123.288 65.771,122.853 															"/>
														</g>
														<g>
															<polygon fill="#A3540D" points="64.266,113.602 65.021,114.036 65.021,103.677 64.266,103.241 															"/>
															<polygon fill="#7F3D06" points="65.021,114.036 65.771,113.602 65.771,103.241 65.021,103.677 															"/>
														</g>
													</g>
												</g>
											</g>
										</g>
									</g>
								</g>
								<polygon fill="#B76C2E" points="65.018,102.788 64.266,103.241 65.021,103.677 65.771,103.241 								"/>
							</g>
						</g>
					</g>
					<g>
						<g>
							<g>
								<g>
									<g>
										<g>
											<g>
												<g>
													<g>
														<polygon fill="#A3540D" points="115.119,95.114 116.889,94.092 115.119,93.065 113.342,94.092 														"/>
														<polyline fill="#874107" points="115.119,93.065 113.342,94.092 115.119,95.114 														"/>
														<g>
															<polygon fill="#BA7625" points="115.869,74.397 115.115,74.833 115.115,94.444 115.869,94.009 															"/>
															<polygon fill="#A3540D" points="114.361,74.397 115.115,74.833 115.115,94.444 114.361,94.009 															"/>
														</g>
														<g>
															<polygon fill="#A3540D" points="115.869,84.759 115.115,85.192 115.115,74.833 115.869,74.397 															"/>
															<polygon fill="#7F3D06" points="115.115,85.192 114.361,84.759 114.361,74.397 115.115,74.833 															"/>
														</g>
													</g>
												</g>
											</g>
										</g>
									</g>
								</g>
								<polygon fill="#B76C2E" points="115.119,73.949 115.869,74.397 115.115,74.833 114.361,74.397 								"/>
							</g>
							<g>
								<g>
									<g>
										<g>
											<g>
												<g>
													<g>
														<polygon fill="#A3540D" points="65.021,123.959 66.793,122.935 65.021,121.909 63.248,122.935 														"/>
														<polyline fill="#874107" points="65.021,121.909 63.248,122.935 65.021,123.959 														"/>
														<g>
															<polygon fill="#BA7625" points="65.775,103.241 65.021,103.677 65.021,123.288 65.775,122.853 															"/>
															<polygon fill="#A3540D" points="64.268,103.241 65.021,103.677 65.021,123.288 64.268,122.853 															"/>
														</g>
														<g>
															<polygon fill="#A3540D" points="65.775,113.602 65.021,114.036 65.021,103.677 65.775,103.241 															"/>
															<polygon fill="#7F3D06" points="65.021,114.036 64.268,113.602 64.268,103.241 65.021,103.677 															"/>
														</g>
													</g>
												</g>
											</g>
										</g>
									</g>
								</g>
								<polygon fill="#B76C2E" points="65.021,102.788 65.775,103.241 65.021,103.677 64.268,103.241 								"/>
							</g>
						</g>
					</g>
				</g>
				<polygon fill="#F7B000" points="65.002,42.581 8.541,75.181 65.002,107.782 121.463,75.181 				"/>
				<polyline fill="#BA1A09" points="65.002,107.782 121.463,75.181 65.002,42.581 				"/>
				<polygon fill="#F98200" points="65.002,48.058 8.541,75.181 65.002,107.782 121.463,75.181 				"/>
				<polygon fill="#F43F00" points="65.002,48.058 65.002,107.782 121.463,75.181 				"/>
			</g>
			<g>
				<g>
					<polygon fill="#F7B000" points="8.152,71.4 8.152,74.995 14.805,71.797 					"/>
					<polygon fill="#F43F00" points="8.152,72.092 8.152,74.995 14.805,71.797 					"/>
					<polygon fill="#F76400" points="14.805,71.797 8.152,74.995 14.805,78.834 					"/>
				</g>
				<g>
					<polygon fill="#F7B000" points="121.848,71.4 121.848,74.995 115.199,71.797 					"/>
					<polygon fill="#F43F00" points="121.848,72.092 121.848,74.995 115.199,71.797 					"/>
					<polygon fill="#CE360D" points="115.199,71.797 121.848,74.995 115.199,78.834 					"/>
				</g>
				<g>
					<polygon fill="#F43F00" points="65.021,102.065 65.002,107.817 62.955,106.635 					"/>
					<polygon fill="#F98200" points="65.023,102.065 65.041,107.817 67.088,106.635 					"/>
				</g>
			</g>
		</g>
		<g>
			<polygon fill="#D33218" points="39.828,51.467 39.828,60.133 65.002,74.662 65.002,66.001 			"/>
			<polygon fill="#702D0F" points="90.172,51.467 90.172,60.133 65.002,74.662 65.002,66.001 			"/>
			<polygon fill="#F43F00" points="39.828,50.558 39.828,59.22 65.002,73.754 65.002,65.092 			"/>
			<polyline fill="#D33218" points="65.002,73.754 65.002,65.092 39.828,50.558 			"/>
			<polygon fill="#8E2D06" points="90.172,50.558 90.172,59.22 65.002,73.754 65.002,65.092 			"/>
			<polyline fill="#702D0F" points="65.002,73.754 65.002,65.092 90.172,50.558 			"/>
			<polygon fill="#6E7072" points="65.002,36.024 39.828,50.558 65.002,65.092 90.172,50.558 			"/>
			<polygon fill="#03728C" points="65.002,36.681 40.963,50.558 65.002,64.439 89.037,50.558 			"/>
			<polygon fill="#515456" points="65.002,37.39 41.578,50.915 65.002,64.439 88.424,50.915 			"/>
			<polyline fill="#3A3D3F" points="65.002,64.439 88.424,50.915 65.002,37.39 			"/>
		</g>
		<g>
			<polygon fill="#D33218" points="44.389,43.822 44.389,50.915 65.002,62.813 65.002,55.722 			"/>
			<polygon fill="#702D0F" points="85.611,43.822 85.611,50.915 65.002,62.813 65.002,55.722 			"/>
			<polygon fill="#F43F00" points="44.389,43.077 44.389,50.169 65.002,62.069 65.002,54.977 			"/>
			<polyline fill="#D33218" points="65.002,62.069 65.002,54.977 44.389,43.077 			"/>
			<polygon fill="#8E2D06" points="85.611,43.077 85.611,50.169 65.002,62.069 65.002,54.977 			"/>
			<polyline fill="#702D0F" points="65.002,62.069 65.002,54.977 85.611,43.077 			"/>
			<polygon fill="#12A2C4" points="65.002,31.179 44.389,43.077 65.002,54.977 85.611,43.077 			"/>
			<polygon fill="#03728C" points="65.002,31.712 45.318,43.077 65.002,54.442 84.682,43.077 			"/>
			<polygon fill="#0E4372" points="65.002,32.294 45.82,43.368 65.002,54.442 84.18,43.368 			"/>
			<polyline fill="#063A60" points="65.002,54.442 84.18,43.368 65.002,32.294 			"/>
		</g>
		<g>
			<polygon fill="#F7B000" points="65.002,26.397 39.807,40.94 65.002,55.487 90.193,40.94 			"/>
			<polyline fill="#BA1A09" points="65.002,55.487 90.193,40.94 65.002,26.397 			"/>
			<polygon fill="#F98200" points="65.002,28.837 39.807,40.94 65.002,55.487 90.193,40.94 			"/>
			<polygon fill="#F43F00" points="65.002,28.837 65.002,55.487 90.193,40.94 			"/>
			<polygon opacity="0.3" fill="#BA1A09" points="51.34,47.601 65.002,55.487 78.713,47.57 78.713,36.388 51.34,36.388 			"/>
		</g>
		<g>
			<g>
				<path fill="#93D6E2" d="M65.002,61.96c-0.059,0-0.119-0.013-0.174-0.045L40.359,47.788c-0.166-0.1-0.225-0.311-0.129-0.477
					c0.098-0.167,0.311-0.22,0.477-0.128l24.467,14.131c0.168,0.095,0.225,0.307,0.129,0.473
					C65.238,61.899,65.119,61.96,65.002,61.96z"/>
			</g>
			<g>
				<path fill="#93D6E2" d="M41.318,51.151c-0.193,0-0.348-0.155-0.348-0.344v-2.836c0-0.189,0.154-0.347,0.348-0.347
					c0.191,0,0.346,0.157,0.346,0.347v2.836C41.664,50.996,41.51,51.151,41.318,51.151z"/>
			</g>
			<g>
				<path fill="#93D6E2" d="M43.727,52.568c-0.191,0-0.348-0.157-0.348-0.347V49.39c0-0.193,0.156-0.349,0.348-0.349
					c0.193,0,0.348,0.155,0.348,0.349v2.832C44.074,52.411,43.92,52.568,43.727,52.568z"/>
			</g>
			<g>
				<path fill="#93D6E2" d="M46.135,53.985c-0.191,0-0.348-0.156-0.348-0.35v-2.832c0-0.19,0.156-0.348,0.348-0.348
					s0.346,0.157,0.346,0.348v2.832C46.48,53.829,46.326,53.985,46.135,53.985z"/>
			</g>
			<g>
				<path fill="#93D6E2" d="M48.543,55.401c-0.193,0-0.346-0.156-0.346-0.348V52.22c0-0.191,0.152-0.347,0.346-0.347
					s0.348,0.155,0.348,0.347v2.834C48.891,55.245,48.736,55.401,48.543,55.401z"/>
			</g>
			<g>
				<path fill="#93D6E2" d="M50.953,56.815c-0.191,0-0.348-0.154-0.348-0.346v-2.834c0-0.191,0.156-0.348,0.348-0.348
					c0.193,0,0.346,0.156,0.346,0.348v2.834C51.299,56.661,51.146,56.815,50.953,56.815z"/>
			</g>
			<g>
				<path fill="#93D6E2" d="M53.361,58.231c-0.191,0-0.348-0.154-0.348-0.346v-2.832c0-0.193,0.156-0.348,0.348-0.348
					c0.193,0,0.35,0.154,0.35,0.348v2.832C53.711,58.077,53.555,58.231,53.361,58.231z"/>
			</g>
			<g>
				<path fill="#93D6E2" d="M55.77,59.647c-0.191,0-0.346-0.156-0.346-0.346V56.47c0-0.193,0.154-0.35,0.346-0.35
					s0.35,0.156,0.35,0.35v2.832C56.119,59.491,55.961,59.647,55.77,59.647z"/>
			</g>
			<g>
				<path fill="#93D6E2" d="M58.18,61.065c-0.191,0-0.348-0.157-0.348-0.348v-2.833c0-0.192,0.156-0.347,0.348-0.347
					s0.346,0.154,0.346,0.347v2.833C58.525,60.908,58.371,61.065,58.18,61.065z"/>
			</g>
			<g>
				<path fill="#93D6E2" d="M60.59,62.48c-0.193,0-0.35-0.155-0.35-0.348v-2.832c0-0.192,0.156-0.348,0.35-0.348
					c0.191,0,0.346,0.155,0.346,0.348v2.832C60.936,62.325,60.781,62.48,60.59,62.48z"/>
			</g>
			<g>
				<path fill="#93D6E2" d="M62.996,63.896c-0.191,0-0.346-0.155-0.346-0.346v-2.834c0-0.192,0.154-0.349,0.346-0.349
					c0.193,0,0.348,0.156,0.348,0.349v2.834C63.344,63.741,63.189,63.896,62.996,63.896z"/>
			</g>
		</g>
		<g>
			<g>
				<path fill="#93D6E2" d="M65.012,61.96c0.059,0,0.117-0.013,0.174-0.045l24.469-14.127c0.166-0.1,0.223-0.311,0.127-0.477
					c-0.096-0.167-0.311-0.22-0.475-0.128L64.84,61.314c-0.168,0.095-0.225,0.307-0.129,0.473
					C64.775,61.899,64.893,61.96,65.012,61.96z"/>
			</g>
			<g>
				<path fill="#93D6E2" d="M88.695,51.151c0.191,0,0.348-0.155,0.348-0.344v-2.836c0-0.189-0.156-0.347-0.348-0.347
					c-0.193,0-0.346,0.157-0.346,0.347v2.836C88.35,50.996,88.502,51.151,88.695,51.151z"/>
			</g>
			<g>
				<path fill="#93D6E2" d="M86.285,52.568c0.193,0,0.348-0.157,0.348-0.347V49.39c0-0.193-0.154-0.349-0.348-0.349
					c-0.191,0-0.346,0.155-0.346,0.349v2.832C85.939,52.411,86.094,52.568,86.285,52.568z"/>
			</g>
			<g>
				<path fill="#93D6E2" d="M83.879,53.985c0.191,0,0.346-0.156,0.346-0.35v-2.832c0-0.19-0.154-0.348-0.346-0.348
					c-0.193,0-0.348,0.157-0.348,0.348v2.832C83.531,53.829,83.686,53.985,83.879,53.985z"/>
			</g>
			<g>
				<path fill="#93D6E2" d="M81.469,55.401c0.191,0,0.348-0.156,0.348-0.348V52.22c0-0.191-0.156-0.347-0.348-0.347
					s-0.346,0.155-0.346,0.347v2.834C81.123,55.245,81.277,55.401,81.469,55.401z"/>
			</g>
			<g>
				<path fill="#93D6E2" d="M79.059,56.815c0.193,0,0.35-0.154,0.35-0.346v-2.834c0-0.191-0.156-0.348-0.35-0.348
					c-0.191,0-0.346,0.156-0.346,0.348v2.834C78.713,56.661,78.867,56.815,79.059,56.815z"/>
			</g>
			<g>
				<path fill="#93D6E2" d="M76.65,58.231c0.193,0,0.35-0.154,0.35-0.346v-2.832c0-0.193-0.156-0.348-0.35-0.348
					c-0.191,0-0.348,0.154-0.348,0.348v2.832C76.303,58.077,76.459,58.231,76.65,58.231z"/>
			</g>
			<g>
				<path fill="#93D6E2" d="M74.242,59.647c0.193,0,0.346-0.156,0.346-0.346V56.47c0-0.193-0.152-0.35-0.346-0.35
					c-0.191,0-0.348,0.156-0.348,0.35v2.832C73.895,59.491,74.051,59.647,74.242,59.647z"/>
			</g>
			<g>
				<path fill="#93D6E2" d="M71.832,61.065c0.193,0,0.35-0.157,0.35-0.348v-2.833c0-0.192-0.156-0.347-0.35-0.347
					c-0.191,0-0.344,0.154-0.344,0.347v2.833C71.488,60.908,71.641,61.065,71.832,61.065z"/>
			</g>
			<g>
				<path fill="#93D6E2" d="M69.424,62.48c0.193,0,0.35-0.155,0.35-0.348v-2.832c0-0.192-0.156-0.348-0.35-0.348
					c-0.191,0-0.346,0.155-0.346,0.348v2.832C69.078,62.325,69.232,62.48,69.424,62.48z"/>
			</g>
			<g>
				<path fill="#93D6E2" d="M67.016,63.896c0.191,0,0.348-0.155,0.348-0.346v-2.834c0-0.192-0.156-0.349-0.348-0.349
					s-0.348,0.156-0.348,0.349v2.834C66.668,63.741,66.824,63.896,67.016,63.896z"/>
			</g>
			<g>
				<path fill="#93D6E2" d="M65.002,64.88c0.191,0,0.348-0.156,0.348-0.349v-2.833c0-0.19-0.156-0.349-0.348-0.349
					s-0.35,0.158-0.35,0.349v2.833C64.652,64.724,64.811,64.88,65.002,64.88z"/>
			</g>
		</g>
	</g>
	<g>
		<g>
			<g>
				<path fill="#F76400" d="M87.396,15.075l-22.193,1.123l-22.191-1.123c0,0-0.635,5.071,7.705,19.986l0.018-0.002
					c0.508,1.653,1.848,3.233,4.045,4.506c5.734,3.309,15.109,3.309,20.844,0c2.199-1.272,3.535-2.853,4.047-4.508l0.021,0.004
					C88.029,20.146,87.396,15.075,87.396,15.075z"/>
				<path fill="#F43F00" d="M87.396,15.075l-4.682,0.235l-11.244,5.647l-22.189-1.121c0,0-0.635,5.072,7.701,19.987l0.021-0.002
					c0.096,0.312,0.248,0.62,0.406,0.925c5.682,2.044,13.285,1.66,18.213-1.182c2.199-1.272,3.535-2.853,4.047-4.508l0.021,0.004
					C88.029,20.146,87.396,15.075,87.396,15.075z"/>
				<path fill="#CE360D" d="M87.396,15.075l-4.682,0.235l-11.244,5.647l6.684,4.457c0,0-19.533,7.32-21.172,14.409l0.021-0.002
					c0.096,0.312,0.248,0.62,0.406,0.925c5.682,2.044,13.285,1.66,18.213-1.182c2.199-1.272,3.535-2.853,4.047-4.508l0.021,0.004
					C88.029,20.146,87.396,15.075,87.396,15.075z"/>
				<path fill="#D33218" d="M80.91,5.927c-8.643-4.986-22.777-4.986-31.42,0c-8.637,4.988-8.637,13.152,0,18.139
					c8.643,4.988,22.777,4.988,31.42,0C89.551,19.079,89.551,10.915,80.91,5.927z"/>
				<path fill="#BA1A09" d="M49.49,24.065c8.643,4.988,22.777,4.988,31.42,0c8.641-4.986,8.641-13.15,0-18.139"/>
				<path fill="#9B0F04" d="M78.656,7.231c-7.404-4.274-19.51-4.274-26.91,0c-7.4,4.271-7.4,11.265,0,15.533
					c7.4,4.272,19.506,4.272,26.91,0C86.061,18.496,86.061,11.503,78.656,7.231z"/>
				<path fill="#630C08" d="M51.746,22.765c7.4,4.272,19.506,4.272,26.91,0c7.404-4.269,7.404-11.262,0-15.533"/>
				<path fill="#F8FFFE" d="M77.055,7.961c-9.457-5.456-11.789-6.884-23.707,0c-6.52,3.764-6.52,11.425,0,15.187
					c6.52,3.764,17.184,3.764,23.707,0C83.574,19.386,83.574,11.725,77.055,7.961z"/>
				<path fill="#E1F9F5" d="M53.348,23.147c6.52,3.764,17.184,3.764,23.707,0c6.52-3.762,6.52-11.423,0-15.187"/>
				<path fill="#BEE5DE" d="M81.684,17.371H70.098v8.18c2.551-0.446,4.949-1.246,6.957-2.403c2.51-1.449,4.051-3.474,4.629-5.635
					V17.371z"/>
				<path fill="#BEE5DE" d="M77.055,23.147c6.52-3.762,6.52-11.423,0-15.187"/>
			</g>
		</g>
		<path fill="#CEEAE4" d="M60.219,8.698c0.072,0.171-0.006,0.367-0.176,0.439L57.559,10.2c-0.17,0.073-0.367-0.005-0.439-0.174l0,0
			c-0.072-0.172,0.006-0.367,0.176-0.439l2.484-1.063C59.949,8.451,60.146,8.528,60.219,8.698L60.219,8.698z"/>
		<path fill="#CEEAE4" d="M61.883,14.556c-0.045,0.179-0.227,0.288-0.406,0.245l-2.623-0.653c-0.18-0.045-0.289-0.224-0.244-0.405
			l0,0c0.045-0.179,0.227-0.288,0.404-0.244l2.625,0.651C61.818,14.194,61.926,14.375,61.883,14.556L61.883,14.556z"/>
		<path fill="#F8FFFE" d="M66.662,20.562c-0.045,0.18-0.227,0.291-0.406,0.244l-2.623-0.65c-0.18-0.043-0.289-0.227-0.244-0.405l0,0
			c0.045-0.179,0.227-0.288,0.404-0.242l2.623,0.649C66.596,20.202,66.705,20.385,66.662,20.562L66.662,20.562z"/>
		<path fill="#F8FFFE" d="M81.158,14.467c0.119,0.14,0.102,0.353-0.039,0.472l-2.064,1.743c-0.143,0.119-0.354,0.102-0.473-0.04l0,0
			c-0.117-0.143-0.102-0.353,0.039-0.472l2.066-1.743C80.828,14.308,81.039,14.325,81.158,14.467L81.158,14.467z"/>
		<path fill="#F8FFFE" d="M79.387,12.647c0.008,0.088-0.057,0.166-0.145,0.176l-1.295,0.122c-0.088,0.007-0.166-0.057-0.174-0.145
			l0,0c-0.01-0.09,0.055-0.168,0.145-0.175l1.293-0.123C79.299,12.495,79.377,12.559,79.387,12.647L79.387,12.647z"/>
		<path fill="#CEEAE4" d="M67.438,12.28c-0.031,0.125-0.156,0.201-0.281,0.17l-1.826-0.453c-0.127-0.03-0.203-0.158-0.172-0.282l0,0
			c0.031-0.126,0.158-0.2,0.283-0.171l1.826,0.455C67.393,12.029,67.469,12.155,67.438,12.28L67.438,12.28z"/>
		<path fill="#CEEAE4" d="M67.549,16.776c0.053,0.117-0.002,0.256-0.119,0.309l-1.727,0.752c-0.117,0.051-0.254-0.002-0.307-0.12
			l0,0c-0.051-0.118,0.004-0.255,0.119-0.306l1.727-0.755C67.361,16.604,67.498,16.658,67.549,16.776L67.549,16.776z"/>
		<path fill="#CEEAE4" d="M56.561,17.194c0.053,0.116-0.002,0.256-0.119,0.307l-1.725,0.754c-0.119,0.053-0.258-0.002-0.309-0.12
			l0,0c-0.051-0.118,0.004-0.255,0.119-0.308l1.727-0.753C56.371,17.023,56.51,17.077,56.561,17.194L56.561,17.194z"/>
		<g>
			<polygon fill="#F98200" points="81.049,3.121 72.697,16.665 72.084,15.526 79.904,1 			"/>
			<polygon fill="#F76400" points="81.049,3.121 72.697,16.665 73.988,16.702 83.461,3.192 			"/>
			<polygon fill="#F49C00" points="79.904,1 81.049,3.121 83.461,3.192 82.316,1.069 			"/>
		</g>
		<g>
			<polygon fill="#F98200" points="81.684,7.368 70.432,18.62 70.098,17.371 81.059,5.04 			"/>
			<polygon fill="#F76400" points="81.684,7.368 70.432,18.62 71.68,18.954 84.01,7.994 			"/>
			<polygon fill="#F49C00" points="81.059,5.04 81.684,7.368 84.01,7.994 83.389,5.665 			"/>
		</g>
	</g>
	<g>
		<polygon fill="#6FAEDD" points="82.744,100.759 82.744,108.188 66.811,117.387 66.811,109.96 		"/>
		<polygon fill="#3AA3D8" points="82.447,108.051 66.811,117.076 66.811,109.96 82.447,100.933 		"/>
		<polyline fill="#1D96CC" points="66.811,117.076 66.811,109.96 82.447,100.933 		"/>
		<polygon opacity="0.6" fill="#3AA3D8" points="78.223,110.738 71.33,114.717 71.33,107.436 78.223,103.456 		"/>
		<polygon opacity="0.6" fill="#3AA3D8" points="74.777,105.434 75.021,105.294 75.021,112.574 74.777,112.718 		"/>
	</g>
	<g>
		<g>
			<polyline fill="#702D0F" points="48.283,98.222 48.979,97.811 48.988,62.879 48.283,63.283 48.283,98.222 			"/>
			<polygon opacity="0.3" fill="#BA1A09" points="44.725,62.99 41.578,94.444 49.27,99.304 58.439,70.897 57.461,70.291 			"/>
			<polygon fill="#8E2D06" points="48.295,63.285 48.988,62.887 32.41,53.317 31.721,53.717 			"/>
			<polygon fill="#D33218" points="31.711,53.717 31.711,88.653 48.287,98.222 48.287,63.285 			"/>
			<polyline fill="#D33218" points="48.287,98.222 48.287,63.285 31.711,53.717 			"/>
			<polygon fill="#702D0F" points="32.637,57.12 32.637,88.152 47.359,96.653 47.359,65.619 			"/>
			<polygon fill="#8E2D06" points="33.086,87.961 33.086,57.381 47.359,65.619 47.359,96.202 			"/>
		</g>
		<g>
			<g>
				<g>
					<path fill="#A4BCBB" d="M42.471,61.328v0.324h0.256c0.002,0,0.002,0,0.002,0h0.006l0,0c0.021-0.005,0.043-0.02,0.061-0.048
						c0.035-0.064,0.035-0.168,0-0.229c-0.018-0.031-0.039-0.047-0.061-0.048l0,0H42.471z"/>
					<path fill="#74918E" d="M42.75,61.635c0.002,0,0.002,0,0.006,0h0.002l0,0c0.006,0,0.01,0,0.014-0.002
						c0.006-0.009,0.016-0.019,0.023-0.028c0.035-0.064,0.035-0.168,0-0.229c-0.018-0.031-0.039-0.047-0.061-0.048l0,0h-0.264v0.307
						H42.75z"/>
					<path fill="#526D6A" d="M42.773,61.614c0.002,0,0.002,0,0.002,0h0.002l0,0c0.006,0,0.008,0,0.01,0
						c0.004-0.002,0.004-0.006,0.008-0.01c0.035-0.064,0.035-0.168,0-0.229c-0.018-0.031-0.039-0.047-0.061-0.048l0,0h-0.264v0.286
						H42.773z"/>
					<path fill="#3C5652" d="M42.803,61.492c0,0,0.002,0,0.004,0h0.008l0,0c0,0,0.004,0,0.006,0s0.002,0,0.002,0
						c0-0.045-0.01-0.084-0.027-0.116c-0.018-0.031-0.039-0.047-0.061-0.048l0,0h-0.264v0.164H42.803z"/>
					<path fill="#BCCECC" d="M42.396,61.376c-0.037,0.061-0.037,0.164,0,0.229c0.037,0.06,0.094,0.06,0.133,0
						c0.029-0.056,0.035-0.14,0.014-0.201c-0.004-0.012-0.01-0.019-0.014-0.027C42.49,61.312,42.434,61.312,42.396,61.376z"/>
					<path fill="#A4BCBB" d="M42.529,61.604c0.029-0.056,0.035-0.14,0.014-0.201c-0.004-0.012-0.01-0.019-0.014-0.027
						c-0.039-0.064-0.096-0.064-0.133,0"/>
				</g>
				<g>
					<g>
						<path fill="#232B2A" d="M42.414,61.264v0.448h0.041c0,0,0,0-0.008,0h0.004h0.008c0.031,0,0.064-0.021,0.088-0.064
							c0.049-0.088,0.049-0.23,0-0.318c-0.023-0.043-0.057-0.063-0.088-0.065h-0.008H42.414z"/>
						<path d="M42.547,61.647c0.049-0.088,0.049-0.23,0-0.318c-0.023-0.043-0.057-0.063-0.088-0.065h-0.008h-0.037v0.384H42.547z"/>
						<path fill="#2D3534" d="M42.326,61.329c-0.047,0.088-0.047,0.23,0,0.318c0.053,0.089,0.135,0.089,0.186,0
							c0.051-0.088,0.051-0.23,0-0.318C42.461,61.243,42.379,61.243,42.326,61.329z"/>
						<path fill="#C7D8D5" d="M42.326,61.329c-0.047,0.088-0.047,0.23,0,0.318"/>
						<path fill="#232B2A" d="M42.512,61.647c0.051-0.088,0.051-0.23,0-0.318c-0.051-0.086-0.133-0.086-0.186,0"/>
						<path fill="#90AFAD" d="M42.34,61.353c-0.041,0.075-0.041,0.196,0,0.271c0.043,0.076,0.115,0.076,0.158,0
							c0.045-0.075,0.045-0.196,0-0.271C42.455,61.278,42.383,61.278,42.34,61.353z"/>
						<path fill="#7A9E9A" d="M42.352,61.36c-0.041,0.072-0.041,0.186,0,0.256c0.041,0.072,0.107,0.072,0.146,0
							c0.043-0.07,0.043-0.184,0-0.256C42.459,61.292,42.393,61.292,42.352,61.36z"/>
						<path fill="#6A918B" d="M42.498,61.616c0.043-0.07,0.043-0.184,0-0.256c-0.039-0.068-0.105-0.068-0.146,0"/>
					</g>
					<g>
						<path fill="#232B2A" d="M42.387,61.292v0.393h0.031c0,0,0,0-0.006,0h0.002h0.008c0.029-0.003,0.057-0.021,0.076-0.057
							c0.045-0.076,0.045-0.2,0-0.28c-0.02-0.032-0.047-0.052-0.076-0.052l-0.008-0.004H42.387z"/>
						<path d="M42.498,61.628c0.045-0.076,0.045-0.2,0-0.28c-0.02-0.032-0.047-0.052-0.076-0.052l-0.008-0.004h-0.027v0.336H42.498z
							"/>
						<path fill="#2D3534" d="M42.309,61.348c-0.045,0.08-0.045,0.204,0,0.28c0.043,0.074,0.115,0.074,0.16,0
							c0.043-0.076,0.043-0.2,0-0.28C42.424,61.273,42.352,61.273,42.309,61.348z"/>
						<path fill="#414C4A" d="M42.309,61.348c-0.045,0.08-0.045,0.204,0,0.28"/>
						<path fill="#232B2A" d="M42.469,61.628c0.043-0.076,0.043-0.2,0-0.28c-0.045-0.074-0.117-0.074-0.16,0"/>
						<path d="M42.32,61.368c-0.037,0.068-0.037,0.172,0,0.24c0.039,0.063,0.098,0.063,0.137,0c0.037-0.068,0.037-0.172,0-0.24
							C42.418,61.306,42.359,61.306,42.32,61.368z"/>
						<path fill="#2B3332" d="M42.33,61.38c-0.035,0.061-0.035,0.156,0,0.221c0.037,0.062,0.092,0.062,0.129,0
							c0.035-0.064,0.035-0.16,0-0.221C42.422,61.315,42.367,61.315,42.33,61.38z"/>
						<path fill="#232B2A" d="M42.459,61.601c0.035-0.064,0.035-0.16,0-0.221c-0.037-0.064-0.092-0.064-0.129,0"/>
					</g>
				</g>
				<g>
					<g>
						<path fill="#FFA300" d="M41.906,61.926c-0.24,0-0.436-0.198-0.436-0.438c0-0.238,0.195-0.432,0.436-0.432
							c0.238,0,0.58,0.193,0.58,0.432C42.486,61.728,42.145,61.926,41.906,61.926z"/>
						<path fill="#FFB600" d="M42.441,61.428c0-0.08-0.02-0.116-0.092-0.192c-0.08-0.094-0.309-0.18-0.443-0.18
							c-0.24,0-0.436,0.193-0.436,0.432c0,0.08,0.023,0.152,0.059,0.219c0.08,0.095,0.201,0.156,0.332,0.156
							C42.102,61.862,42.441,61.669,42.441,61.428z"/>
						<path fill="#FFC200" d="M42.35,61.235c-0.08-0.094-0.309-0.18-0.443-0.18c-0.24,0-0.436,0.193-0.436,0.432
							c0,0.08,0.023,0.152,0.059,0.219"/>
						<path opacity="0.7" fill="#FFD400" d="M41.906,61.056c-0.24,0-0.436,0.193-0.436,0.432c0,0.08,0.023,0.152,0.059,0.219"/>
					</g>
					<path fill="#FFA300" d="M42.195,61.849c0.158-0.078,0.291-0.211,0.291-0.361c0-0.147-0.133-0.277-0.291-0.357
						c-0.033,0.018-0.064,0.051-0.094,0.094c-0.084,0.145-0.084,0.385,0,0.529C42.131,61.801,42.162,61.829,42.195,61.849z"/>
					<path opacity="0.5" fill="#FFD400" d="M42.145,61.685c-0.109,0-0.197-0.088-0.197-0.197c0-0.107,0.088-0.195,0.197-0.195
						c0.107,0,0.262,0.088,0.262,0.195C42.406,61.597,42.252,61.685,42.145,61.685z"/>
					<path opacity="0.5" fill="#FFD400" d="M41.947,61.487c0-0.107,0.088-0.195,0.197-0.195c0.107,0,0.262,0.088,0.262,0.195"/>
					<path opacity="0.5" fill="#FFD400" d="M42.211,61.635c-0.082,0-0.148-0.065-0.148-0.147c0-0.079,0.066-0.146,0.148-0.146
						c0.078,0,0.195,0.066,0.195,0.146C42.406,61.569,42.289,61.635,42.211,61.635z"/>
					<path opacity="0.5" fill="#FFD400" d="M42.062,61.487c0-0.079,0.066-0.146,0.148-0.146c0.078,0,0.195,0.066,0.195,0.146"/>
				</g>
			</g>
			<g>
				<g>
					<path fill="#A4BCBB" d="M40.678,60.279v0.319h0.258c0.002,0,0.002,0,0.002,0h0.004l0,0c0.021,0,0.043-0.016,0.061-0.045
						c0.035-0.062,0.035-0.167,0-0.229c-0.018-0.026-0.039-0.045-0.061-0.046l0,0H40.678z"/>
					<path fill="#74918E" d="M40.961,60.587L40.961,60.587h0.004l0,0c0.004,0,0.008-0.004,0.012-0.004
						c0.01-0.006,0.02-0.016,0.025-0.029c0.035-0.062,0.035-0.167,0-0.229c-0.018-0.026-0.039-0.045-0.061-0.046l0,0h-0.264v0.308
						H40.961z"/>
					<path fill="#526D6A" d="M40.98,60.567c0.002,0,0.002,0,0.002,0h0.008l0,0c0,0,0.004,0,0.006,0
						c0.002-0.004,0.006-0.012,0.006-0.012c0.035-0.064,0.035-0.169,0-0.23c-0.018-0.026-0.039-0.045-0.061-0.046l0,0h-0.264v0.288
						H40.98z"/>
					<path fill="#3C5652" d="M41.012,60.441c0.002,0,0.002,0,0.002,0h0.008l0,0c0.004,0,0.004,0,0.008,0l0,0
						c0-0.046-0.008-0.085-0.027-0.116c-0.018-0.026-0.039-0.045-0.061-0.046l0,0h-0.264v0.162H41.012z"/>
					<path fill="#BCCECC" d="M40.605,60.325c-0.039,0.062-0.039,0.166,0,0.229c0.035,0.062,0.094,0.062,0.133,0
						c0.029-0.055,0.033-0.137,0.012-0.199c-0.004-0.012-0.01-0.02-0.012-0.029C40.699,60.261,40.641,60.261,40.605,60.325z"/>
					<path fill="#A4BCBB" d="M40.738,60.554c0.029-0.055,0.033-0.137,0.012-0.199c-0.004-0.012-0.01-0.02-0.012-0.029
						c-0.039-0.064-0.098-0.064-0.133,0"/>
				</g>
				<g>
					<g>
						<path fill="#232B2A" d="M40.623,60.215v0.446h0.037c0,0,0,0-0.008,0h0.006h0.008c0.031,0,0.062-0.02,0.088-0.062
							c0.051-0.088,0.051-0.231,0-0.318c-0.025-0.043-0.057-0.065-0.088-0.065h-0.008H40.623z"/>
						<path d="M40.754,60.599c0.051-0.088,0.051-0.231,0-0.318c-0.025-0.043-0.057-0.065-0.088-0.065h-0.008h-0.035v0.384H40.754z"
							/>
						<path fill="#2D3534" d="M40.535,60.28c-0.051,0.087-0.051,0.23,0,0.318c0.051,0.087,0.133,0.087,0.182,0
							c0.053-0.088,0.053-0.231,0-0.318C40.668,60.192,40.586,60.192,40.535,60.28z"/>
						<path fill="#C7D8D5" d="M40.535,60.28c-0.051,0.087-0.051,0.23,0,0.318"/>
						<path fill="#232B2A" d="M40.717,60.599c0.053-0.088,0.053-0.231,0-0.318c-0.049-0.088-0.131-0.088-0.182,0"/>
						<path fill="#90AFAD" d="M40.549,60.306c-0.045,0.073-0.045,0.193,0,0.271c0.043,0.074,0.111,0.074,0.156,0
							c0.045-0.078,0.045-0.198,0-0.271C40.66,60.227,40.592,60.227,40.549,60.306z"/>
						<path fill="#7A9E9A" d="M40.561,60.312c-0.041,0.073-0.041,0.186,0,0.256c0.041,0.072,0.107,0.072,0.146,0
							c0.043-0.07,0.043-0.183,0-0.256C40.668,60.243,40.602,60.243,40.561,60.312z"/>
						<path fill="#6A918B" d="M40.707,60.567c0.043-0.07,0.043-0.183,0-0.256c-0.039-0.068-0.105-0.068-0.146,0"/>
					</g>
					<g>
						<path fill="#232B2A" d="M40.594,60.243v0.393h0.031c0,0,0.002,0-0.004,0h0.002h0.006c0.029-0.003,0.057-0.021,0.076-0.059
							c0.045-0.074,0.045-0.198,0-0.275c-0.02-0.039-0.047-0.055-0.076-0.057l-0.006-0.002H40.594z"/>
						<path d="M40.705,60.577c0.045-0.074,0.045-0.198,0-0.275c-0.02-0.039-0.047-0.055-0.076-0.057l-0.006-0.002h-0.029v0.334
							H40.705z"/>
						<path fill="#2D3534" d="M40.518,60.302c-0.045,0.077-0.045,0.201,0,0.275c0.043,0.076,0.113,0.076,0.16,0
							c0.041-0.074,0.041-0.198,0-0.275C40.631,60.225,40.561,60.225,40.518,60.302z"/>
						<path fill="#414C4A" d="M40.518,60.302c-0.045,0.077-0.045,0.201,0,0.275"/>
						<path fill="#232B2A" d="M40.678,60.577c0.041-0.074,0.041-0.198,0-0.275c-0.047-0.077-0.117-0.077-0.16,0"/>
						<path d="M40.529,60.323c-0.037,0.063-0.037,0.168,0,0.232c0.037,0.067,0.098,0.067,0.137,0c0.035-0.064,0.035-0.169,0-0.232
							C40.627,60.258,40.566,60.258,40.529,60.323z"/>
						<path fill="#2B3332" d="M40.537,60.327c-0.035,0.064-0.035,0.16,0,0.224c0.037,0.061,0.092,0.061,0.129,0
							c0.035-0.063,0.035-0.159,0-0.224C40.629,60.267,40.574,60.267,40.537,60.327z"/>
						<path fill="#232B2A" d="M40.666,60.551c0.035-0.063,0.035-0.159,0-0.224c-0.037-0.061-0.092-0.061-0.129,0"/>
					</g>
				</g>
				<g>
					<g>
						<path fill="#FFA300" d="M40.113,60.872c-0.24,0-0.434-0.193-0.434-0.431c0-0.243,0.193-0.434,0.434-0.434
							c0.238,0,0.58,0.19,0.58,0.434C40.693,60.679,40.352,60.872,40.113,60.872z"/>
						<path fill="#FFB600" d="M40.65,60.379c0-0.077-0.021-0.118-0.092-0.191c-0.08-0.096-0.311-0.18-0.445-0.18
							c-0.24,0-0.434,0.19-0.434,0.434c0,0.077,0.02,0.15,0.057,0.214c0.08,0.096,0.199,0.156,0.334,0.156
							C40.309,60.812,40.65,60.62,40.65,60.379z"/>
						<path fill="#FFC200" d="M40.559,60.188c-0.08-0.096-0.311-0.18-0.445-0.18c-0.24,0-0.434,0.19-0.434,0.434
							c0,0.077,0.02,0.15,0.057,0.214"/>
						<path opacity="0.7" fill="#FFD400" d="M40.113,60.008c-0.24,0-0.434,0.19-0.434,0.434c0,0.077,0.02,0.15,0.057,0.214"/>
					</g>
					<path fill="#FFA300" d="M40.4,60.799c0.16-0.079,0.293-0.207,0.293-0.357c0-0.151-0.133-0.282-0.293-0.362
						c-0.031,0.018-0.064,0.047-0.09,0.097c-0.082,0.147-0.082,0.384,0,0.532C40.336,60.751,40.369,60.779,40.4,60.799z"/>
					<path opacity="0.5" fill="#FFD400" d="M40.352,60.636c-0.107,0-0.195-0.087-0.195-0.194c0-0.11,0.088-0.198,0.195-0.198
						c0.109,0,0.264,0.088,0.264,0.198C40.615,60.549,40.461,60.636,40.352,60.636z"/>
					<path opacity="0.5" fill="#FFD400" d="M40.156,60.441c0-0.11,0.088-0.198,0.195-0.198c0.109,0,0.264,0.088,0.264,0.198"/>
					<path opacity="0.5" fill="#FFD400" d="M40.416,60.587c-0.08,0-0.146-0.068-0.146-0.146c0-0.085,0.066-0.151,0.146-0.151
						s0.199,0.066,0.199,0.151C40.615,60.519,40.496,60.587,40.416,60.587z"/>
					<path opacity="0.5" fill="#FFD400" d="M40.27,60.441c0-0.085,0.066-0.151,0.146-0.151s0.199,0.066,0.199,0.151"/>
				</g>
			</g>
			<g>
				<g>
					<path fill="#A4BCBB" d="M38.883,59.227v0.324h0.262l0,0h0.004l0,0c0.023,0,0.043-0.019,0.062-0.043
						c0.033-0.065,0.033-0.17,0-0.231c-0.02-0.03-0.039-0.047-0.062-0.05l0,0H38.883z"/>
					<path fill="#74918E" d="M39.168,59.536L39.168,59.536h0.006l0,0c0.004,0,0.008-0.002,0.014-0.004
						c0.008-0.006,0.016-0.018,0.023-0.024c0.033-0.065,0.033-0.17,0-0.231c-0.02-0.03-0.039-0.047-0.062-0.05l0,0h-0.266v0.31
						H39.168z"/>
					<path fill="#526D6A" d="M39.188,59.515c0,0,0,0,0.002,0h0.006l0,0c0.004,0,0.004,0,0.008,0c0-0.002,0.006-0.005,0.008-0.007
						c0.033-0.065,0.033-0.17,0-0.231c-0.02-0.03-0.039-0.047-0.062-0.05l0,0h-0.266v0.288H39.188z"/>
					<path fill="#3C5652" d="M39.221,59.391L39.221,59.391h0.008l0,0c0.004,0,0.004,0,0.008,0l0,0c0-0.04-0.008-0.082-0.025-0.114
						c-0.02-0.03-0.039-0.047-0.062-0.05l0,0h-0.266v0.164H39.221z"/>
					<path fill="#BCCECC" d="M38.812,59.276c-0.037,0.062-0.037,0.166,0,0.231c0.035,0.058,0.096,0.058,0.131,0
						c0.031-0.058,0.037-0.142,0.012-0.202c-0.004-0.012-0.008-0.021-0.012-0.029C38.908,59.215,38.848,59.215,38.812,59.276z"/>
					<path fill="#A4BCBB" d="M38.943,59.508c0.031-0.058,0.037-0.142,0.012-0.202c-0.004-0.012-0.008-0.021-0.012-0.029
						c-0.035-0.062-0.096-0.062-0.131,0"/>
				</g>
				<g>
					<g>
						<path fill="#232B2A" d="M38.832,59.166v0.448h0.035c0.002,0,0.002,0-0.006,0h0.004h0.008c0.031,0,0.064-0.022,0.086-0.063
							c0.053-0.088,0.053-0.232,0-0.321c-0.021-0.043-0.055-0.063-0.086-0.063h-0.008H38.832z"/>
						<path d="M38.959,59.551c0.053-0.088,0.053-0.232,0-0.321c-0.021-0.043-0.055-0.063-0.086-0.063h-0.008h-0.033v0.385H38.959z"
							/>
						<path fill="#2D3534" d="M38.744,59.229c-0.053,0.089-0.053,0.233,0,0.321c0.047,0.087,0.131,0.087,0.184,0
							c0.047-0.088,0.047-0.232,0-0.321C38.875,59.142,38.791,59.142,38.744,59.229z"/>
						<path fill="#C7D8D5" d="M38.744,59.229c-0.053,0.089-0.053,0.233,0,0.321"/>
						<path fill="#232B2A" d="M38.928,59.551c0.047-0.088,0.047-0.232,0-0.321c-0.053-0.088-0.137-0.088-0.184,0"/>
						<path fill="#90AFAD" d="M38.756,59.255c-0.045,0.073-0.045,0.195,0,0.271c0.045,0.074,0.113,0.074,0.156,0
							c0.043-0.076,0.043-0.198,0-0.271C38.869,59.179,38.801,59.179,38.756,59.255z"/>
						<path fill="#7A9E9A" d="M38.768,59.263c-0.039,0.07-0.039,0.184,0,0.256c0.041,0.068,0.107,0.068,0.148,0
							c0.039-0.072,0.039-0.186,0-0.256C38.875,59.194,38.809,59.194,38.768,59.263z"/>
						<path fill="#6A918B" d="M38.916,59.519c0.039-0.072,0.039-0.186,0-0.256c-0.041-0.068-0.107-0.068-0.148,0"/>
					</g>
					<g>
						<path fill="#232B2A" d="M38.801,59.194v0.388h0.031c0,0,0.002,0-0.004,0h0.004h0.004c0.029,0,0.057-0.017,0.078-0.056
							c0.041-0.076,0.041-0.198,0-0.275c-0.021-0.034-0.049-0.055-0.078-0.055l-0.004-0.002H38.801z"/>
						<path d="M38.914,59.526c0.041-0.076,0.041-0.198,0-0.275c-0.021-0.034-0.049-0.055-0.078-0.055l-0.004-0.002h-0.031v0.332
							H38.914z"/>
						<path fill="#2D3534" d="M38.723,59.251c-0.043,0.077-0.043,0.199,0,0.275c0.045,0.078,0.117,0.078,0.16,0
							c0.045-0.076,0.045-0.198,0-0.275C38.84,59.176,38.768,59.176,38.723,59.251z"/>
						<path fill="#414C4A" d="M38.723,59.251c-0.043,0.077-0.043,0.199,0,0.275"/>
						<path fill="#232B2A" d="M38.883,59.526c0.045-0.076,0.045-0.198,0-0.275c-0.043-0.075-0.115-0.075-0.16,0"/>
						<path d="M38.736,59.271c-0.039,0.064-0.039,0.172,0,0.239c0.035,0.064,0.098,0.064,0.135,0c0.039-0.067,0.039-0.175,0-0.239
							C38.834,59.206,38.771,59.206,38.736,59.271z"/>
						<path fill="#2B3332" d="M38.746,59.278c-0.037,0.06-0.037,0.16,0,0.221c0.033,0.063,0.092,0.063,0.127,0
							c0.035-0.061,0.035-0.161,0-0.221C38.838,59.217,38.779,59.217,38.746,59.278z"/>
						<path fill="#232B2A" d="M38.873,59.499c0.035-0.061,0.035-0.161,0-0.221c-0.035-0.062-0.094-0.062-0.127,0"/>
					</g>
				</g>
				<g>
					<g>
						<path fill="#FFA300" d="M38.32,59.823c-0.242,0-0.434-0.193-0.434-0.433c0-0.241,0.191-0.437,0.434-0.437
							c0.238,0,0.58,0.195,0.58,0.437C38.9,59.63,38.559,59.823,38.32,59.823z"/>
						<path fill="#FFB600" d="M38.859,59.328c0-0.077-0.021-0.113-0.094-0.192c-0.08-0.094-0.311-0.182-0.445-0.182
							c-0.242,0-0.434,0.195-0.434,0.437c0,0.077,0.02,0.151,0.059,0.216c0.078,0.096,0.197,0.156,0.334,0.156
							C38.518,59.763,38.859,59.571,38.859,59.328z"/>
						<path fill="#FFC200" d="M38.766,59.136c-0.08-0.094-0.311-0.182-0.445-0.182c-0.242,0-0.434,0.195-0.434,0.437
							c0,0.077,0.02,0.151,0.059,0.216"/>
						<path opacity="0.7" fill="#FFD400" d="M38.32,58.954c-0.242,0-0.434,0.195-0.434,0.437c0,0.077,0.02,0.151,0.059,0.216"/>
					</g>
					<path fill="#FFA300" d="M38.611,59.746c0.156-0.075,0.289-0.208,0.289-0.355c0-0.151-0.133-0.28-0.289-0.36
						c-0.035,0.016-0.066,0.051-0.092,0.096c-0.084,0.145-0.084,0.384,0,0.528C38.545,59.702,38.576,59.731,38.611,59.746z"/>
					<path opacity="0.5" fill="#FFD400" d="M38.559,59.587c-0.107,0-0.195-0.088-0.195-0.196s0.088-0.196,0.195-0.196
						c0.109,0,0.264,0.088,0.264,0.196S38.668,59.587,38.559,59.587z"/>
					<path opacity="0.5" fill="#FFD400" d="M38.363,59.391c0-0.108,0.088-0.196,0.195-0.196c0.109,0,0.264,0.088,0.264,0.196"/>
					<path opacity="0.5" fill="#FFD400" d="M38.623,59.536c-0.08,0-0.146-0.065-0.146-0.146c0-0.082,0.066-0.146,0.146-0.146
						c0.084,0,0.199,0.063,0.199,0.146C38.822,59.471,38.707,59.536,38.623,59.536z"/>
					<path opacity="0.5" fill="#FFD400" d="M38.477,59.391c0-0.082,0.066-0.146,0.146-0.146c0.084,0,0.199,0.063,0.199,0.146"/>
				</g>
			</g>
		</g>
	</g>
	<g>
		<g>
			<polyline fill="#702D0F" points="81.75,98.222 81.055,97.811 81.045,62.879 81.75,63.283 81.75,98.222 			"/>
			<polygon opacity="0.3" fill="#BA1A09" points="85.309,62.99 88.455,94.444 80.764,99.304 71.594,70.897 72.57,70.291 			"/>
			<polygon fill="#8E2D06" points="81.738,63.285 81.045,62.887 97.623,53.317 98.312,53.717 			"/>
			<polygon fill="#D33218" points="98.322,53.717 98.322,88.653 81.746,98.222 81.746,63.285 			"/>
			<polyline fill="#D33218" points="81.746,98.222 81.746,63.285 98.322,53.717 			"/>
			<polygon fill="#702D0F" points="97.396,57.12 97.396,88.152 82.674,96.653 82.674,65.619 			"/>
			<polygon fill="#8E2D06" points="96.947,87.961 96.947,57.381 82.674,65.619 82.674,96.202 			"/>
		</g>
		<g>
			<g>
				<g>
					<path fill="#A4BCBB" d="M87.562,61.328v0.324h-0.256c-0.002,0-0.002,0-0.004,0h-0.004l0,0c-0.021-0.005-0.045-0.02-0.061-0.048
						c-0.037-0.064-0.037-0.168,0-0.229c0.016-0.031,0.039-0.047,0.061-0.048l0,0H87.562z"/>
					<path fill="#74918E" d="M87.283,61.635c-0.002,0-0.002,0-0.006,0h-0.004l0,0c-0.004,0-0.008,0-0.012-0.002
						c-0.008-0.009-0.016-0.019-0.023-0.028c-0.037-0.064-0.037-0.168,0-0.229c0.016-0.031,0.039-0.047,0.061-0.048l0,0h0.264v0.307
						H87.283z"/>
					<path fill="#526D6A" d="M87.26,61.614c-0.002,0-0.002,0-0.002,0h-0.004l0,0c-0.004,0-0.006,0-0.008,0
						c-0.004-0.002-0.004-0.006-0.008-0.01c-0.037-0.064-0.037-0.168,0-0.229c0.016-0.031,0.039-0.047,0.061-0.048l0,0h0.264v0.286
						H87.26z"/>
					<path fill="#3C5652" d="M87.23,61.492c0,0-0.002,0-0.004,0h-0.008l0,0h-0.006c-0.002,0-0.002,0-0.002,0
						c0-0.045,0.01-0.084,0.027-0.116c0.016-0.031,0.039-0.047,0.061-0.048l0,0h0.264v0.164H87.23z"/>
					<path fill="#BCCECC" d="M87.637,61.376c0.035,0.061,0.035,0.164,0,0.229c-0.037,0.06-0.094,0.06-0.133,0
						c-0.029-0.056-0.035-0.14-0.014-0.201c0.004-0.012,0.008-0.019,0.014-0.027C87.543,61.312,87.6,61.312,87.637,61.376z"/>
					<path fill="#A4BCBB" d="M87.504,61.604c-0.029-0.056-0.035-0.14-0.014-0.201c0.004-0.012,0.008-0.019,0.014-0.027
						c0.039-0.064,0.096-0.064,0.133,0"/>
				</g>
				<g>
					<g>
						<path fill="#232B2A" d="M87.619,61.264v0.448h-0.041c0,0,0,0,0.008,0h-0.004h-0.008c-0.031,0-0.064-0.021-0.088-0.064
							c-0.051-0.088-0.051-0.23,0-0.318c0.023-0.043,0.057-0.063,0.088-0.065h0.008H87.619z"/>
						<path d="M87.486,61.647c-0.051-0.088-0.051-0.23,0-0.318c0.023-0.043,0.057-0.063,0.088-0.065h0.008h0.037v0.384H87.486z"/>
						<path fill="#2D3534" d="M87.707,61.329c0.047,0.088,0.047,0.23,0,0.318c-0.053,0.089-0.135,0.089-0.186,0
							c-0.051-0.088-0.051-0.23,0-0.318C87.572,61.243,87.654,61.243,87.707,61.329z"/>
						<path fill="#C7D8D5" d="M87.707,61.329c0.047,0.088,0.047,0.23,0,0.318"/>
						<path fill="#232B2A" d="M87.521,61.647c-0.051-0.088-0.051-0.23,0-0.318c0.051-0.086,0.133-0.086,0.186,0"/>
						<path fill="#90AFAD" d="M87.691,61.353c0.043,0.075,0.043,0.196,0,0.271c-0.041,0.076-0.113,0.076-0.156,0
							c-0.045-0.075-0.045-0.196,0-0.271C87.578,61.278,87.65,61.278,87.691,61.353z"/>
						<path fill="#7A9E9A" d="M87.682,61.36c0.041,0.072,0.041,0.186,0,0.256c-0.041,0.072-0.107,0.072-0.146,0
							c-0.043-0.07-0.043-0.184,0-0.256C87.574,61.292,87.641,61.292,87.682,61.36z"/>
						<path fill="#6A918B" d="M87.535,61.616c-0.043-0.07-0.043-0.184,0-0.256c0.039-0.068,0.105-0.068,0.146,0"/>
					</g>
					<g>
						<path fill="#232B2A" d="M87.646,61.292v0.393h-0.031c0,0,0,0,0.004,0l0,0h-0.01c-0.027-0.003-0.055-0.021-0.074-0.057
							c-0.045-0.076-0.045-0.2,0-0.28c0.02-0.032,0.047-0.052,0.074-0.052l0.01-0.004H87.646z"/>
						<path d="M87.535,61.628c-0.045-0.076-0.045-0.2,0-0.28c0.02-0.032,0.047-0.052,0.074-0.052l0.01-0.004h0.027v0.336H87.535z"/>
						<path fill="#2D3534" d="M87.725,61.348c0.045,0.08,0.045,0.204,0,0.28c-0.043,0.074-0.115,0.074-0.16,0
							c-0.043-0.076-0.043-0.2,0-0.28C87.609,61.273,87.682,61.273,87.725,61.348z"/>
						<path fill="#414C4A" d="M87.725,61.348c0.045,0.08,0.045,0.204,0,0.28"/>
						<path fill="#232B2A" d="M87.564,61.628c-0.043-0.076-0.043-0.2,0-0.28c0.045-0.074,0.117-0.074,0.16,0"/>
						<path d="M87.713,61.368c0.037,0.068,0.037,0.172,0,0.24c-0.039,0.063-0.098,0.063-0.137,0c-0.037-0.068-0.037-0.172,0-0.24
							C87.615,61.306,87.674,61.306,87.713,61.368z"/>
						<path fill="#2B3332" d="M87.701,61.38c0.037,0.061,0.037,0.156,0,0.221c-0.035,0.062-0.092,0.062-0.127,0
							c-0.035-0.064-0.035-0.16,0-0.221C87.609,61.315,87.666,61.315,87.701,61.38z"/>
						<path fill="#232B2A" d="M87.574,61.601c-0.035-0.064-0.035-0.16,0-0.221c0.035-0.064,0.092-0.064,0.127,0"/>
					</g>
				</g>
				<g>
					<g>
						<path fill="#FFA300" d="M88.127,61.926c0.24,0,0.436-0.198,0.436-0.438c0-0.238-0.195-0.432-0.436-0.432
							c-0.238,0-0.58,0.193-0.58,0.432C87.547,61.728,87.889,61.926,88.127,61.926z"/>
						<path fill="#FFB600" d="M87.59,61.428c0-0.08,0.02-0.116,0.092-0.192c0.08-0.094,0.311-0.18,0.445-0.18
							c0.24,0,0.436,0.193,0.436,0.432c0,0.08-0.023,0.152-0.059,0.219c-0.08,0.095-0.201,0.156-0.334,0.156
							C87.932,61.862,87.59,61.669,87.59,61.428z"/>
						<path fill="#FFC200" d="M87.682,61.235c0.08-0.094,0.311-0.18,0.445-0.18c0.24,0,0.436,0.193,0.436,0.432
							c0,0.08-0.023,0.152-0.059,0.219"/>
						<path opacity="0.7" fill="#FFD400" d="M88.127,61.056c0.24,0,0.436,0.193,0.436,0.432c0,0.08-0.023,0.152-0.059,0.219"/>
					</g>
					<path fill="#FFA300" d="M87.838,61.849c-0.158-0.078-0.291-0.211-0.291-0.361c0-0.147,0.133-0.277,0.291-0.357
						c0.033,0.018,0.064,0.051,0.094,0.094c0.084,0.145,0.084,0.385,0,0.529C87.902,61.801,87.871,61.829,87.838,61.849z"/>
					<path opacity="0.5" fill="#FFD400" d="M87.889,61.685c0.109,0,0.197-0.088,0.197-0.197c0-0.107-0.088-0.195-0.197-0.195
						c-0.107,0-0.262,0.088-0.262,0.195C87.627,61.597,87.781,61.685,87.889,61.685z"/>
					<path opacity="0.5" fill="#FFD400" d="M88.086,61.487c0-0.107-0.088-0.195-0.197-0.195c-0.107,0-0.262,0.088-0.262,0.195"/>
					<path opacity="0.5" fill="#FFD400" d="M87.822,61.635c0.082,0,0.148-0.065,0.148-0.147c0-0.079-0.066-0.146-0.148-0.146
						c-0.08,0-0.195,0.066-0.195,0.146C87.627,61.569,87.742,61.635,87.822,61.635z"/>
					<path opacity="0.5" fill="#FFD400" d="M87.971,61.487c0-0.079-0.066-0.146-0.148-0.146c-0.08,0-0.195,0.066-0.195,0.146"/>
				</g>
			</g>
			<g>
				<g>
					<path fill="#A4BCBB" d="M89.355,60.279v0.319h-0.258c-0.002,0-0.002,0-0.002,0h-0.004l0,0c-0.023,0-0.045-0.016-0.061-0.045
						c-0.035-0.062-0.035-0.167,0-0.229c0.016-0.026,0.037-0.045,0.061-0.046l0,0H89.355z"/>
					<path fill="#74918E" d="M89.072,60.587L89.072,60.587h-0.004l0,0c-0.004,0-0.01-0.004-0.012-0.004
						c-0.01-0.006-0.02-0.016-0.025-0.029c-0.035-0.062-0.035-0.167,0-0.229c0.016-0.026,0.037-0.045,0.061-0.046l0,0h0.264v0.308
						H89.072z"/>
					<path fill="#526D6A" d="M89.053,60.567c-0.002,0-0.002,0-0.002,0h-0.008l0,0c0,0-0.004,0-0.006,0
						c-0.002-0.004-0.006-0.012-0.006-0.012c-0.035-0.064-0.035-0.169,0-0.23c0.016-0.026,0.037-0.045,0.061-0.046l0,0h0.264v0.288
						H89.053z"/>
					<path fill="#3C5652" d="M89.021,60.441c-0.002,0-0.002,0-0.002,0h-0.008l0,0c-0.004,0-0.004,0-0.008,0l0,0
						c0-0.046,0.008-0.085,0.027-0.116c0.016-0.026,0.037-0.045,0.061-0.046l0,0h0.264v0.162H89.021z"/>
					<path fill="#BCCECC" d="M89.428,60.325c0.037,0.062,0.037,0.166,0,0.229c-0.035,0.062-0.094,0.062-0.133,0
						c-0.029-0.055-0.033-0.137-0.012-0.199c0.004-0.012,0.01-0.02,0.012-0.029C89.334,60.261,89.393,60.261,89.428,60.325z"/>
					<path fill="#A4BCBB" d="M89.295,60.554c-0.029-0.055-0.033-0.137-0.012-0.199c0.004-0.012,0.01-0.02,0.012-0.029
						c0.039-0.064,0.098-0.064,0.133,0"/>
				</g>
				<g>
					<g>
						<path fill="#232B2A" d="M89.41,60.215v0.446h-0.037c0,0,0,0,0.008,0h-0.006h-0.008c-0.031,0-0.064-0.02-0.088-0.062
							c-0.051-0.088-0.051-0.231,0-0.318c0.023-0.043,0.057-0.065,0.088-0.065h0.008H89.41z"/>
						<path d="M89.279,60.599c-0.051-0.088-0.051-0.231,0-0.318c0.023-0.043,0.057-0.065,0.088-0.065h0.008h0.035v0.384H89.279z"/>
						<path fill="#2D3534" d="M89.498,60.28c0.049,0.087,0.049,0.23,0,0.318c-0.051,0.087-0.135,0.087-0.182,0
							c-0.053-0.088-0.053-0.231,0-0.318C89.363,60.192,89.447,60.192,89.498,60.28z"/>
						<path fill="#C7D8D5" d="M89.498,60.28c0.049,0.087,0.049,0.23,0,0.318"/>
						<path fill="#232B2A" d="M89.316,60.599c-0.053-0.088-0.053-0.231,0-0.318c0.047-0.088,0.131-0.088,0.182,0"/>
						<path fill="#90AFAD" d="M89.484,60.306c0.043,0.073,0.043,0.193,0,0.271c-0.043,0.074-0.111,0.074-0.156,0
							c-0.045-0.078-0.045-0.198,0-0.271C89.373,60.227,89.441,60.227,89.484,60.306z"/>
						<path fill="#7A9E9A" d="M89.473,60.312c0.041,0.073,0.041,0.186,0,0.256c-0.041,0.072-0.107,0.072-0.146,0
							c-0.043-0.07-0.043-0.183,0-0.256C89.365,60.243,89.432,60.243,89.473,60.312z"/>
						<path fill="#6A918B" d="M89.326,60.567c-0.043-0.07-0.043-0.183,0-0.256c0.039-0.068,0.105-0.068,0.146,0"/>
					</g>
					<g>
						<path fill="#232B2A" d="M89.439,60.243v0.393h-0.031c0,0-0.002,0,0.004,0H89.41h-0.006c-0.029-0.003-0.057-0.021-0.076-0.059
							c-0.045-0.074-0.045-0.198,0-0.275c0.02-0.039,0.047-0.055,0.076-0.057l0.006-0.002H89.439z"/>
						<path d="M89.328,60.577c-0.045-0.074-0.045-0.198,0-0.275c0.02-0.039,0.047-0.055,0.076-0.057l0.006-0.002h0.029v0.334H89.328
							z"/>
						<path fill="#2D3534" d="M89.516,60.302c0.045,0.077,0.045,0.201,0,0.275c-0.043,0.076-0.113,0.076-0.16,0
							c-0.043-0.074-0.043-0.198,0-0.275C89.402,60.225,89.473,60.225,89.516,60.302z"/>
						<path fill="#414C4A" d="M89.516,60.302c0.045,0.077,0.045,0.201,0,0.275"/>
						<path fill="#232B2A" d="M89.355,60.577c-0.043-0.074-0.043-0.198,0-0.275c0.047-0.077,0.117-0.077,0.16,0"/>
						<path d="M89.504,60.323c0.037,0.063,0.037,0.168,0,0.232c-0.037,0.067-0.098,0.067-0.137,0c-0.035-0.064-0.035-0.169,0-0.232
							C89.406,60.258,89.467,60.258,89.504,60.323z"/>
						<path fill="#2B3332" d="M89.496,60.327c0.035,0.064,0.035,0.16,0,0.224c-0.037,0.061-0.092,0.061-0.129,0
							c-0.035-0.063-0.035-0.159,0-0.224C89.404,60.267,89.459,60.267,89.496,60.327z"/>
						<path fill="#232B2A" d="M89.367,60.551c-0.035-0.063-0.035-0.159,0-0.224c0.037-0.061,0.092-0.061,0.129,0"/>
					</g>
				</g>
				<g>
					<g>
						<path fill="#FFA300" d="M89.92,60.872c0.24,0,0.432-0.193,0.432-0.431c0-0.243-0.191-0.434-0.432-0.434s-0.58,0.19-0.58,0.434
							C89.34,60.679,89.68,60.872,89.92,60.872z"/>
						<path fill="#FFB600" d="M89.383,60.379c0-0.077,0.021-0.118,0.092-0.191c0.08-0.096,0.311-0.18,0.445-0.18
							c0.24,0,0.432,0.19,0.432,0.434c0,0.077-0.02,0.15-0.055,0.214c-0.08,0.096-0.199,0.156-0.334,0.156
							C89.725,60.812,89.383,60.62,89.383,60.379z"/>
						<path fill="#FFC200" d="M89.475,60.188c0.08-0.096,0.311-0.18,0.445-0.18c0.24,0,0.432,0.19,0.432,0.434
							c0,0.077-0.02,0.15-0.055,0.214"/>
						<path opacity="0.7" fill="#FFD400" d="M89.92,60.008c0.24,0,0.432,0.19,0.432,0.434c0,0.077-0.02,0.15-0.055,0.214"/>
					</g>
					<path fill="#FFA300" d="M89.633,60.799c-0.16-0.079-0.293-0.207-0.293-0.357c0-0.151,0.133-0.282,0.293-0.362
						c0.031,0.018,0.064,0.047,0.09,0.097c0.082,0.147,0.082,0.384,0,0.532C89.697,60.751,89.664,60.779,89.633,60.799z"/>
					<path opacity="0.5" fill="#FFD400" d="M89.68,60.636c0.109,0,0.197-0.087,0.197-0.194c0-0.11-0.088-0.198-0.197-0.198
						c-0.107,0-0.262,0.088-0.262,0.198C89.418,60.549,89.572,60.636,89.68,60.636z"/>
					<path opacity="0.5" fill="#FFD400" d="M89.877,60.441c0-0.11-0.088-0.198-0.197-0.198c-0.107,0-0.262,0.088-0.262,0.198"/>
					<path opacity="0.5" fill="#FFD400" d="M89.617,60.587c0.08,0,0.145-0.068,0.145-0.146c0-0.085-0.064-0.151-0.145-0.151
						s-0.199,0.066-0.199,0.151C89.418,60.519,89.537,60.587,89.617,60.587z"/>
					<path opacity="0.5" fill="#FFD400" d="M89.762,60.441c0-0.085-0.064-0.151-0.145-0.151s-0.199,0.066-0.199,0.151"/>
				</g>
			</g>
			<g>
				<g>
					<path fill="#A4BCBB" d="M91.148,59.227v0.324h-0.26l0,0h-0.004l0,0c-0.023,0-0.043-0.019-0.062-0.043
						c-0.033-0.065-0.033-0.17,0-0.231c0.02-0.03,0.039-0.047,0.062-0.05l0,0H91.148z"/>
					<path fill="#74918E" d="M90.865,59.536L90.865,59.536h-0.006l0,0c-0.004,0-0.008-0.002-0.014-0.004
						c-0.008-0.006-0.016-0.018-0.023-0.024c-0.033-0.065-0.033-0.17,0-0.231c0.02-0.03,0.039-0.047,0.062-0.05l0,0h0.264v0.31
						H90.865z"/>
					<path fill="#526D6A" d="M90.846,59.515c0,0,0,0-0.004,0h-0.004l0,0c-0.006,0-0.006,0-0.008,0c0-0.002-0.006-0.005-0.008-0.007
						c-0.033-0.065-0.033-0.17,0-0.231c0.02-0.03,0.039-0.047,0.062-0.05l0,0h0.264v0.288H90.846z"/>
					<path fill="#3C5652" d="M90.812,59.391L90.812,59.391h-0.008l0,0c-0.004,0-0.004,0-0.008,0l0,0c0-0.04,0.008-0.082,0.025-0.114
						c0.02-0.03,0.039-0.047,0.062-0.05l0,0h0.264v0.164H90.812z"/>
					<path fill="#BCCECC" d="M91.221,59.276c0.037,0.062,0.037,0.166,0,0.231c-0.035,0.058-0.096,0.058-0.131,0
						c-0.033-0.058-0.037-0.142-0.014-0.202c0.006-0.012,0.01-0.021,0.014-0.029C91.125,59.215,91.186,59.215,91.221,59.276z"/>
					<path fill="#A4BCBB" d="M91.09,59.508c-0.033-0.058-0.037-0.142-0.014-0.202c0.006-0.012,0.01-0.021,0.014-0.029
						c0.035-0.062,0.096-0.062,0.131,0"/>
				</g>
				<g>
					<g>
						<path fill="#232B2A" d="M91.201,59.166v0.448h-0.035c-0.002,0-0.002,0,0.006,0h-0.004h-0.01c-0.029,0-0.062-0.022-0.084-0.063
							c-0.053-0.088-0.053-0.232,0-0.321c0.021-0.043,0.055-0.063,0.084-0.063h0.01H91.201z"/>
						<path d="M91.074,59.551c-0.053-0.088-0.053-0.232,0-0.321c0.021-0.043,0.055-0.063,0.084-0.063h0.01h0.033v0.385H91.074z"/>
						<path fill="#2D3534" d="M91.289,59.229c0.053,0.089,0.053,0.233,0,0.321c-0.049,0.087-0.131,0.087-0.184,0
							c-0.049-0.088-0.049-0.232,0-0.321C91.158,59.142,91.24,59.142,91.289,59.229z"/>
						<path fill="#C7D8D5" d="M91.289,59.229c0.053,0.089,0.053,0.233,0,0.321"/>
						<path fill="#232B2A" d="M91.105,59.551c-0.049-0.088-0.049-0.232,0-0.321c0.053-0.088,0.135-0.088,0.184,0"/>
						<path fill="#90AFAD" d="M91.277,59.255c0.043,0.073,0.043,0.195,0,0.271c-0.045,0.074-0.113,0.074-0.156,0
							c-0.045-0.076-0.045-0.198,0-0.271C91.164,59.179,91.232,59.179,91.277,59.255z"/>
						<path fill="#7A9E9A" d="M91.266,59.263c0.039,0.07,0.039,0.184,0,0.256c-0.041,0.068-0.107,0.068-0.148,0
							c-0.041-0.072-0.041-0.186,0-0.256C91.158,59.194,91.225,59.194,91.266,59.263z"/>
						<path fill="#6A918B" d="M91.117,59.519c-0.041-0.072-0.041-0.186,0-0.256c0.041-0.068,0.107-0.068,0.148,0"/>
					</g>
					<g>
						<path fill="#232B2A" d="M91.232,59.194v0.388h-0.031c0,0-0.002,0,0.004,0h-0.004h-0.004c-0.029,0-0.057-0.017-0.078-0.056
							c-0.043-0.076-0.043-0.198,0-0.275c0.021-0.034,0.049-0.055,0.078-0.055l0.004-0.002H91.232z"/>
						<path d="M91.119,59.526c-0.043-0.076-0.043-0.198,0-0.275c0.021-0.034,0.049-0.055,0.078-0.055l0.004-0.002h0.031v0.332
							H91.119z"/>
						<path fill="#2D3534" d="M91.311,59.251c0.043,0.077,0.043,0.199,0,0.275c-0.045,0.078-0.117,0.078-0.162,0
							c-0.043-0.076-0.043-0.198,0-0.275C91.193,59.176,91.266,59.176,91.311,59.251z"/>
						<path fill="#414C4A" d="M91.311,59.251c0.043,0.077,0.043,0.199,0,0.275"/>
						<path fill="#232B2A" d="M91.148,59.526c-0.043-0.076-0.043-0.198,0-0.275c0.045-0.075,0.117-0.075,0.162,0"/>
						<path d="M91.297,59.271c0.039,0.064,0.039,0.172,0,0.239c-0.035,0.064-0.098,0.064-0.135,0c-0.039-0.067-0.039-0.175,0-0.239
							C91.199,59.206,91.262,59.206,91.297,59.271z"/>
						<path fill="#2B3332" d="M91.287,59.278c0.035,0.06,0.035,0.16,0,0.221c-0.033,0.063-0.092,0.063-0.129,0
							c-0.033-0.061-0.033-0.161,0-0.221C91.195,59.217,91.254,59.217,91.287,59.278z"/>
						<path fill="#232B2A" d="M91.158,59.499c-0.033-0.061-0.033-0.161,0-0.221c0.037-0.062,0.096-0.062,0.129,0"/>
					</g>
				</g>
				<g>
					<g>
						<path fill="#FFA300" d="M91.713,59.823c0.24,0,0.434-0.193,0.434-0.433c0-0.241-0.193-0.437-0.434-0.437
							c-0.238,0-0.58,0.195-0.58,0.437C91.133,59.63,91.475,59.823,91.713,59.823z"/>
						<path fill="#FFB600" d="M91.174,59.328c0-0.077,0.021-0.113,0.094-0.192c0.08-0.094,0.311-0.182,0.445-0.182
							c0.24,0,0.434,0.195,0.434,0.437c0,0.077-0.02,0.151-0.059,0.216c-0.078,0.096-0.197,0.156-0.334,0.156
							C91.516,59.763,91.174,59.571,91.174,59.328z"/>
						<path fill="#FFC200" d="M91.268,59.136c0.08-0.094,0.311-0.182,0.445-0.182c0.24,0,0.434,0.195,0.434,0.437
							c0,0.077-0.02,0.151-0.059,0.216"/>
						<path opacity="0.7" fill="#FFD400" d="M91.713,58.954c0.24,0,0.434,0.195,0.434,0.437c0,0.077-0.02,0.151-0.059,0.216"/>
					</g>
					<path fill="#FFA300" d="M91.422,59.746c-0.156-0.075-0.289-0.208-0.289-0.355c0-0.151,0.133-0.28,0.289-0.36
						c0.035,0.016,0.066,0.051,0.092,0.096c0.084,0.145,0.084,0.384,0,0.528C91.488,59.702,91.457,59.731,91.422,59.746z"/>
					<path opacity="0.5" fill="#FFD400" d="M91.475,59.587c0.107,0,0.195-0.088,0.195-0.196s-0.088-0.196-0.195-0.196
						c-0.109,0-0.264,0.088-0.264,0.196S91.365,59.587,91.475,59.587z"/>
					<path opacity="0.5" fill="#FFD400" d="M91.67,59.391c0-0.108-0.088-0.196-0.195-0.196c-0.109,0-0.264,0.088-0.264,0.196"/>
					<path opacity="0.5" fill="#FFD400" d="M91.41,59.536c0.08,0,0.145-0.065,0.145-0.146c0-0.082-0.064-0.146-0.145-0.146
						c-0.084,0-0.199,0.063-0.199,0.146C91.211,59.471,91.326,59.536,91.41,59.536z"/>
					<path opacity="0.5" fill="#FFD400" d="M91.555,59.391c0-0.082-0.064-0.146-0.145-0.146c-0.084,0-0.199,0.063-0.199,0.146"/>
				</g>
			</g>
		</g>
	</g>
	<g>
		<path opacity="0.1" fill="#252828" d="M84.322,110.782c-0.137-0.078-0.137-0.206,0-0.285l6.541-3.776
			c0.137-0.079,0.357-0.079,0.494,0l1.615,0.933c0.137,0.078,0.137,0.207,0,0.287l-6.539,3.776c-0.137,0.078-0.359,0.078-0.496,0
			L84.322,110.782z"/>
		<g>
			<g>
				<g>
					<polygon fill="#3B4F4D" points="91.777,105.677 91.777,107.717 91.633,107.635 91.508,105.521 					"/>
					<polygon fill="#648280" points="91.777,105.677 91.777,107.717 91.92,107.635 92.045,105.521 					"/>
					<polyline fill="#4E6866" points="92.045,105.521 91.777,105.677 91.777,107.717 					"/>
					<polygon fill="#5B2907" points="91.508,105.521 91.777,105.677 92.045,105.521 91.777,105.366 					"/>
				</g>
			</g>
			<g>
				<g>
					<path fill="#648280" d="M92.242,108.138c0.055,0,0.107-0.029,0.135-0.078c0.043-0.073,0.018-0.168-0.057-0.213l-1.064-0.613
						c-0.074-0.043-0.168-0.017-0.211,0.058c-0.043,0.073-0.02,0.169,0.057,0.212l1.064,0.613
						C92.189,108.13,92.217,108.138,92.242,108.138z"/>
				</g>
				<path fill="#3B4F4D" d="M91.162,107.296l1.064,0.615c0.074,0.043,0.098,0.138,0.055,0.213c-0.002,0.003-0.004,0.006-0.006,0.011
					c-0.012,0.001-0.021,0.003-0.033,0.003c-0.025,0-0.053-0.008-0.076-0.021l-1.064-0.613c-0.076-0.043-0.1-0.139-0.057-0.212
					c0.002-0.005,0.004-0.009,0.006-0.011C91.088,107.271,91.127,107.276,91.162,107.296z"/>
				<g>
					<path fill="#648280" d="M85.309,111.061c-0.041,0-0.08-0.02-0.1-0.056c-0.031-0.055-0.014-0.126,0.041-0.157l6.346-3.663
						c0.055-0.031,0.125-0.014,0.156,0.043c0.031,0.054,0.012,0.124-0.043,0.155l-6.344,3.663
						C85.346,111.058,85.326,111.061,85.309,111.061z"/>
				</g>
				<g>
					<path fill="#648280" d="M85.76,111.587c0.053,0,0.105-0.027,0.133-0.078c0.043-0.072,0.018-0.167-0.057-0.21l-1.062-0.616
						c-0.074-0.043-0.172-0.018-0.213,0.057c-0.043,0.076-0.018,0.17,0.057,0.213l1.064,0.615
						C85.705,111.581,85.732,111.587,85.76,111.587z"/>
				</g>
				<path fill="#3B4F4D" d="M84.678,110.746l1.064,0.615c0.074,0.042,0.1,0.138,0.057,0.211c-0.002,0.003-0.004,0.007-0.008,0.011
					c-0.01,0.002-0.021,0.004-0.031,0.004c-0.027,0-0.055-0.006-0.078-0.02l-1.064-0.615c-0.074-0.043-0.1-0.137-0.057-0.213
					c0.002-0.003,0.004-0.006,0.008-0.01C84.604,110.722,84.643,110.726,84.678,110.746z"/>
				<path fill="#4E6866" d="M91.596,107.185l-6.346,3.663c-0.008,0.005-0.016,0.012-0.023,0.019
					c0.021,0.021,0.051,0.032,0.082,0.032c0.018,0,0.037-0.005,0.057-0.014l6.344-3.665c0.01-0.003,0.018-0.011,0.023-0.018
					C91.697,107.166,91.641,107.158,91.596,107.185z"/>
			</g>
			<g>
				<g>
					<polygon fill="#3B4F4D" points="85.227,109.181 85.227,111.222 85.084,111.14 84.959,109.026 					"/>
					<polygon fill="#648280" points="85.227,109.181 85.227,111.222 85.371,111.14 85.496,109.026 					"/>
					<polyline fill="#4E6866" points="85.496,109.026 85.227,109.181 85.227,111.222 					"/>
					<polygon fill="#5B2907" points="84.959,109.026 85.227,109.181 85.496,109.026 85.227,108.871 					"/>
				</g>
			</g>
			<path fill="#3B4F4D" d="M93.008,105.405l-1.65-0.661c-0.137-0.077-0.357-0.077-0.494,0l-6.498,3.752l0,0l-0.088-0.186
				c-0.135,0.079-0.092,0.419,0.045,0.497l1.615,0.933c0.137,0.078,0.359,0.078,0.496,0l6.539-3.777
				C93.109,105.885,93.145,105.483,93.008,105.405z"/>
			<g>
				<path fill="#4E6866" d="M84.322,108.492c-0.137-0.079-0.137-0.206,0-0.286l6.541-3.777c0.137-0.078,0.357-0.078,0.494,0
					l1.615,0.934c0.137,0.078,0.137,0.207,0,0.285l-6.539,3.778c-0.137,0.078-0.359,0.078-0.496,0L84.322,108.492z"/>
				<path fill="#729390" d="M91.357,104.429c-0.137-0.078-0.357-0.078-0.494,0l-6.498,3.752l1.572,0.908
					c0.137,0.079,0.359,0.079,0.496,0l6.498-3.752L91.357,104.429z"/>
				<path fill="#648280" d="M84.365,108.181l1.572,0.908c0.137,0.079,0.359,0.079,0.496,0l6.498-3.752"/>
			</g>
		</g>
	</g>
	<g>
		<path opacity="0.1" fill="#252828" d="M94.521,104.938c-0.137-0.078-0.137-0.207,0-0.285l6.541-3.777
			c0.137-0.079,0.357-0.079,0.494,0l1.615,0.932c0.137,0.08,0.137,0.209,0,0.287l-6.539,3.777c-0.137,0.078-0.359,0.078-0.496,0
			L94.521,104.938z"/>
		<g>
			<g>
				<g>
					<polygon fill="#3B4F4D" points="101.977,99.831 101.977,101.872 101.832,101.79 101.707,99.677 					"/>
					<polygon fill="#648280" points="101.977,99.831 101.977,101.872 102.119,101.79 102.242,99.677 					"/>
					<polyline fill="#4E6866" points="102.242,99.677 101.977,99.831 101.977,101.872 					"/>
					<polygon fill="#5B2907" points="101.707,99.677 101.977,99.831 102.242,99.677 101.977,99.521 					"/>
				</g>
			</g>
			<g>
				<g>
					<path fill="#648280" d="M102.441,102.293c0.055,0,0.105-0.028,0.135-0.078c0.043-0.073,0.018-0.166-0.057-0.212l-1.064-0.613
						c-0.074-0.044-0.168-0.018-0.211,0.057c-0.043,0.073-0.02,0.168,0.057,0.213l1.062,0.612
						C102.389,102.286,102.414,102.293,102.441,102.293z"/>
				</g>
				<path fill="#3B4F4D" d="M101.361,101.452l1.062,0.615c0.074,0.042,0.1,0.137,0.057,0.211c-0.002,0.004-0.004,0.008-0.006,0.012
					c-0.012,0.002-0.021,0.003-0.033,0.003c-0.027,0-0.053-0.007-0.078-0.021l-1.062-0.612c-0.076-0.045-0.1-0.14-0.057-0.213
					c0.002-0.004,0.004-0.008,0.006-0.011C101.287,101.427,101.326,101.433,101.361,101.452z"/>
				<g>
					<path fill="#648280" d="M95.508,105.217c-0.041,0-0.08-0.021-0.1-0.057c-0.031-0.054-0.014-0.126,0.041-0.157l6.346-3.664
						c0.055-0.031,0.125-0.012,0.156,0.044c0.031,0.054,0.012,0.125-0.043,0.155l-6.346,3.664
						C95.545,105.213,95.525,105.217,95.508,105.217z"/>
				</g>
				<g>
					<path fill="#648280" d="M95.959,105.742c0.053,0,0.104-0.025,0.133-0.077c0.043-0.073,0.018-0.169-0.057-0.212l-1.064-0.614
						c-0.072-0.043-0.17-0.018-0.211,0.057c-0.043,0.074-0.018,0.17,0.057,0.212l1.064,0.615
						C95.904,105.737,95.932,105.742,95.959,105.742z"/>
				</g>
				<path fill="#3B4F4D" d="M94.877,104.901l1.062,0.615c0.076,0.043,0.102,0.137,0.059,0.211c-0.002,0.004-0.006,0.008-0.008,0.011
					c-0.01,0.002-0.021,0.004-0.031,0.004c-0.027,0-0.055-0.005-0.078-0.02l-1.064-0.615c-0.074-0.042-0.1-0.138-0.057-0.212
					c0.002-0.004,0.004-0.008,0.008-0.011C94.803,104.878,94.842,104.883,94.877,104.901z"/>
				<path fill="#4E6866" d="M101.795,101.339l-6.346,3.664c-0.01,0.006-0.018,0.012-0.023,0.02c0.021,0.021,0.051,0.031,0.082,0.031
					c0.018,0,0.037-0.005,0.055-0.014l6.346-3.665c0.008-0.003,0.018-0.011,0.023-0.018
					C101.895,101.321,101.84,101.313,101.795,101.339z"/>
			</g>
			<g>
				<g>
					<polygon fill="#3B4F4D" points="95.426,103.336 95.426,105.378 95.283,105.294 95.158,103.182 					"/>
					<polygon fill="#648280" points="95.426,103.336 95.426,105.378 95.57,105.294 95.695,103.182 					"/>
					<polyline fill="#4E6866" points="95.695,103.182 95.426,103.336 95.426,105.378 					"/>
					<polygon fill="#5B2907" points="95.158,103.182 95.426,103.336 95.695,103.182 95.426,103.026 					"/>
				</g>
			</g>
			<path fill="#3B4F4D" d="M103.207,99.561l-1.65-0.661c-0.137-0.078-0.357-0.078-0.494,0l-6.498,3.752l0,0l-0.088-0.185
				c-0.135,0.077-0.092,0.418,0.045,0.495l1.615,0.934c0.137,0.078,0.359,0.078,0.496,0l6.539-3.777
				C103.309,100.04,103.342,99.64,103.207,99.561z"/>
			<g>
				<path fill="#4E6866" d="M94.521,102.647c-0.137-0.079-0.137-0.207,0-0.285l6.541-3.777c0.137-0.08,0.357-0.08,0.494,0
					l1.615,0.934c0.137,0.078,0.137,0.206,0,0.285l-6.539,3.776c-0.137,0.079-0.359,0.079-0.496,0L94.521,102.647z"/>
				<path fill="#729390" d="M101.557,98.585c-0.137-0.08-0.357-0.08-0.494,0l-6.498,3.751l1.572,0.908
					c0.137,0.079,0.359,0.079,0.496,0l6.496-3.751L101.557,98.585z"/>
				<path fill="#648280" d="M94.564,102.336l1.572,0.908c0.137,0.079,0.359,0.079,0.496,0l6.496-3.751"/>
			</g>
		</g>
	</g>
	<g>
		<path opacity="0.1" fill="#252828" d="M104.719,99.094c-0.135-0.079-0.135-0.207,0-0.285l6.543-3.776
			c0.135-0.08,0.357-0.08,0.494,0l1.615,0.933c0.137,0.078,0.137,0.206,0,0.286l-6.541,3.777c-0.135,0.078-0.357,0.078-0.494,0
			L104.719,99.094z"/>
		<g>
			<g>
				<g>
					<polygon fill="#3B4F4D" points="112.174,93.987 112.174,96.028 112.029,95.946 111.906,93.832 					"/>
					<polygon fill="#648280" points="112.174,93.987 112.174,96.028 112.318,95.946 112.441,93.832 					"/>
					<polyline fill="#4E6866" points="112.441,93.832 112.174,93.987 112.174,96.028 					"/>
					<polygon fill="#5B2907" points="111.906,93.832 112.174,93.987 112.441,93.832 112.174,93.677 					"/>
				</g>
			</g>
			<g>
				<g>
					<path fill="#648280" d="M112.641,96.448c0.053,0,0.105-0.028,0.135-0.078c0.043-0.073,0.018-0.168-0.057-0.212l-1.064-0.613
						c-0.074-0.044-0.168-0.019-0.211,0.058c-0.043,0.073-0.02,0.168,0.055,0.211l1.064,0.613
						C112.588,96.441,112.613,96.448,112.641,96.448z"/>
				</g>
				<path fill="#3B4F4D" d="M111.561,95.607l1.062,0.614c0.074,0.043,0.1,0.138,0.057,0.213c-0.002,0.004-0.004,0.007-0.008,0.01
					c-0.01,0.002-0.021,0.004-0.031,0.004c-0.027,0-0.053-0.007-0.078-0.021l-1.064-0.613c-0.074-0.043-0.098-0.138-0.055-0.211
					c0.002-0.005,0.004-0.009,0.006-0.011C111.486,95.583,111.525,95.588,111.561,95.607z"/>
				<g>
					<path fill="#648280" d="M105.707,99.372c-0.041,0-0.08-0.02-0.102-0.057c-0.031-0.055-0.012-0.125,0.043-0.156l6.346-3.664
						c0.055-0.03,0.125-0.013,0.156,0.043c0.031,0.055,0.012,0.125-0.043,0.154l-6.346,3.665
						C105.744,99.368,105.725,99.372,105.707,99.372z"/>
				</g>
				<g>
					<path fill="#648280" d="M106.156,99.897c0.055,0,0.105-0.027,0.135-0.078c0.043-0.072,0.018-0.168-0.057-0.211l-1.064-0.615
						c-0.074-0.042-0.17-0.018-0.211,0.058c-0.043,0.075-0.018,0.169,0.055,0.212l1.066,0.615
						C106.104,99.892,106.131,99.897,106.156,99.897z"/>
				</g>
				<path fill="#3B4F4D" d="M105.076,99.058l1.062,0.614c0.076,0.043,0.1,0.138,0.059,0.213c-0.002,0.002-0.006,0.006-0.008,0.009
					c-0.012,0.002-0.021,0.004-0.033,0.004c-0.025,0-0.053-0.006-0.076-0.02l-1.066-0.615c-0.072-0.043-0.098-0.137-0.055-0.212
					c0.002-0.002,0.004-0.007,0.006-0.011C105.002,99.033,105.041,99.036,105.076,99.058z"/>
				<path fill="#4E6866" d="M111.994,95.495l-6.346,3.664c-0.01,0.005-0.018,0.012-0.023,0.018c0.021,0.021,0.051,0.033,0.082,0.033
					c0.018,0,0.037-0.006,0.055-0.015l6.346-3.665c0.008-0.004,0.016-0.01,0.023-0.018C112.094,95.478,112.039,95.47,111.994,95.495
					z"/>
			</g>
			<g>
				<g>
					<polygon fill="#3B4F4D" points="105.625,97.491 105.625,99.533 105.482,99.45 105.357,97.337 					"/>
					<polygon fill="#648280" points="105.625,97.491 105.625,99.533 105.77,99.45 105.893,97.337 					"/>
					<polyline fill="#4E6866" points="105.893,97.337 105.625,97.491 105.625,99.533 					"/>
					<polygon fill="#5B2907" points="105.357,97.337 105.625,97.491 105.893,97.337 105.625,97.183 					"/>
				</g>
			</g>
			<path fill="#3B4F4D" d="M113.406,93.717l-1.65-0.662c-0.137-0.077-0.359-0.077-0.494,0l-6.498,3.752l0,0l-0.088-0.185
				c-0.135,0.078-0.092,0.418,0.043,0.496l1.617,0.933c0.137,0.079,0.359,0.079,0.494,0l6.541-3.776
				C113.508,94.196,113.541,93.794,113.406,93.717z"/>
			<g>
				<path fill="#4E6866" d="M104.719,96.804c-0.135-0.08-0.135-0.207,0-0.287l6.543-3.776c0.135-0.079,0.357-0.079,0.494,0
					l1.615,0.934c0.137,0.078,0.137,0.206,0,0.284l-6.541,3.777c-0.135,0.08-0.357,0.08-0.494,0L104.719,96.804z"/>
				<path fill="#729390" d="M111.756,92.74c-0.137-0.079-0.359-0.079-0.494,0l-6.498,3.751l1.572,0.908
					c0.137,0.08,0.359,0.08,0.494,0l6.498-3.751L111.756,92.74z"/>
				<path fill="#648280" d="M104.764,96.491l1.572,0.908c0.137,0.08,0.359,0.08,0.494,0l6.498-3.751"/>
			</g>
		</g>
	</g>
</g>
</svg>
